<?xml version="1.0" encoding="UTF-8"?>
<svg id="Layer_1" data-name="Layer 1" xmlns="http://www.w3.org/2000/svg" xmlns:xlink="http://www.w3.org/1999/xlink" viewBox="0 0 1280 421.3">
  <defs>
    <style>
      .cls-1 {
        fill: none;
      }

      .cls-2 {
        clip-path: url(#clippath);
      }

      .cls-3 {
        fill: #fff;
      }

      .cls-4 {
        fill: #9ed1f1;
      }
    </style>
    <clipPath id="clippath">
      <rect class="cls-1" x="2" width="1280" height="440.03"/>
    </clipPath>
  </defs>
  <g class="cls-2">
    <g>
      <path class="cls-4" d="M929.87-1.57h-142.31c21.83,6.26,44.37,10.91,71.15,10.91s49.33-4.65,71.16-10.91Z"/>
      <path class="cls-4" d="M517.49-1.57h-142.31c21.83,6.26,44.37,10.91,71.16,10.91s49.33-4.65,71.16-10.91Z"/>
      <path class="cls-4" d="M1278.09,9.22V-1.57h-78.14c21.83,6.26,44.37,10.91,71.15,10.91,2.33,0,4.66-.04,6.99-.12Z"/>
      <path class="cls-4" d="M105.1-1.57H-1.91V6.45c12.12,1.93,23.96,2.89,35.86,2.89,26.79,0,49.33-4.65,71.15-10.91Z"/>
      <path class="cls-4" d="M1164.77,245.06c-31.52-10.21-61.29-19.85-99.87-19.85s-68.35,9.64-99.87,19.85c-31.65,10.25-64.38,20.85-106.32,20.85s-74.67-10.6-106.32-20.85c-31.52-10.21-61.29-19.85-99.87-19.85s-68.35,9.64-99.87,19.85c-31.65,10.25-64.38,20.85-106.32,20.85s-74.67-10.6-106.33-20.85c-31.52-10.21-61.29-19.85-99.87-19.85s-68.35,9.64-99.87,19.85c-31.65,10.25-64.38,20.85-106.32,20.85-11.94,0-23.8-.88-35.86-2.64v48.38c12.11,1.93,23.96,2.89,35.86,2.89,38.58,0,68.35-9.64,99.87-19.85,31.65-10.25,64.38-20.85,106.32-20.85s74.67,10.6,106.32,20.85c31.52,10.2,61.29,19.85,99.87,19.85s68.35-9.64,99.87-19.85c31.65-10.25,64.38-20.85,106.32-20.85s74.67,10.6,106.32,20.85c31.52,10.2,61.29,19.85,99.87,19.85s68.35-9.64,99.87-19.85c31.65-10.25,64.38-20.85,106.32-20.85s74.67,10.6,106.32,20.85c31.52,10.2,61.29,19.85,99.87,19.85,2.33,0,4.66-.04,6.99-.12v-48.62c-2.33,.07-4.66,.1-6.99,.1-41.94,0-74.67-10.6-106.32-20.85Z"/>
      <path class="cls-4" d="M1164.77,122.98c-31.52-10.21-61.29-19.85-99.87-19.85s-68.35,9.64-99.87,19.85c-31.65,10.25-64.38,20.85-106.32,20.85s-74.67-10.6-106.32-20.85c-31.52-10.21-61.29-19.85-99.87-19.85s-68.35,9.64-99.87,19.85c-31.65,10.25-64.38,20.85-106.32,20.85s-74.67-10.6-106.33-20.85c-31.52-10.21-61.29-19.85-99.87-19.85s-68.35,9.64-99.87,19.85c-31.65,10.25-64.38,20.85-106.32,20.85-11.93,0-23.79-.88-35.86-2.64v48.38c12.12,1.93,23.96,2.89,35.86,2.89,38.58,0,68.35-9.64,99.87-19.84,31.65-10.25,64.38-20.85,106.32-20.85s74.67,10.6,106.32,20.85c31.52,10.21,61.29,19.84,99.87,19.84s68.35-9.64,99.87-19.84c31.65-10.25,64.38-20.85,106.32-20.85s74.67,10.6,106.32,20.85c31.52,10.21,61.29,19.84,99.87,19.84s68.35-9.64,99.87-19.84c31.65-10.25,64.38-20.85,106.32-20.85s74.67,10.6,106.32,20.85c31.52,10.21,61.29,19.84,99.87,19.84,2.33,0,4.66-.04,6.99-.12v-48.62c-2.33,.07-4.66,.1-6.99,.1-41.94,0-74.67-10.6-106.32-20.85Z"/>
      <path class="cls-4" d="M1164.77,306.09c-31.52-10.2-61.29-19.85-99.87-19.85s-68.35,9.64-99.87,19.85c-31.65,10.25-64.38,20.85-106.32,20.85s-74.67-10.6-106.32-20.85c-31.52-10.21-61.29-19.85-99.87-19.85s-68.35,9.64-99.87,19.85c-31.65,10.25-64.38,20.85-106.32,20.85s-74.67-10.6-106.33-20.85c-31.52-10.21-61.29-19.85-99.87-19.85s-68.35,9.64-99.87,19.85c-31.65,10.25-64.38,20.85-106.32,20.85-11.94,0-23.8-.88-35.86-2.64v48.38c12.12,1.93,23.96,2.89,35.86,2.89,38.58,0,68.35-9.64,99.87-19.85,31.65-10.25,64.38-20.85,106.32-20.85s74.67,10.6,106.32,20.85c31.52,10.2,61.29,19.85,99.87,19.85s68.35-9.64,99.87-19.85c31.65-10.25,64.38-20.85,106.32-20.85s74.67,10.6,106.32,20.85c31.52,10.2,61.29,19.85,99.87,19.85s68.35-9.64,99.87-19.85c31.65-10.25,64.38-20.85,106.32-20.85s74.67,10.6,106.32,20.85c31.52,10.2,61.29,19.85,99.87,19.85,2.33,0,4.66-.04,6.99-.12v-48.62c-2.33,.07-4.66,.1-6.99,.1-41.94,0-74.67-10.6-106.32-20.85Z"/>
      <path class="cls-4" d="M1164.77,184.02c-31.52-10.21-61.29-19.85-99.87-19.85s-68.35,9.64-99.87,19.85c-31.65,10.25-64.38,20.85-106.32,20.85s-74.67-10.6-106.32-20.85c-31.52-10.21-61.29-19.85-99.87-19.85s-68.35,9.64-99.87,19.85c-31.65,10.25-64.38,20.85-106.32,20.85s-74.67-10.6-106.33-20.85c-31.52-10.21-61.29-19.85-99.87-19.85s-68.35,9.64-99.87,19.85c-31.65,10.25-64.38,20.85-106.32,20.85-11.93,0-23.79-.88-35.86-2.64v48.38c12.12,1.93,23.96,2.89,35.86,2.89,38.58,0,68.35-9.64,99.87-19.85,31.65-10.25,64.38-20.85,106.32-20.85s74.67,10.6,106.32,20.85c31.52,10.21,61.29,19.85,99.87,19.85s68.35-9.64,99.87-19.85c31.65-10.25,64.38-20.85,106.32-20.85s74.67,10.6,106.32,20.85c31.52,10.21,61.29,19.85,99.87,19.85s68.35-9.64,99.87-19.85c31.65-10.25,64.38-20.85,106.32-20.85s74.67,10.6,106.32,20.85c31.52,10.21,61.29,19.85,99.87,19.85,2.33,0,4.66-.04,6.99-.12v-48.62c-2.33,.07-4.66,.1-6.99,.1-41.94,0-74.67-10.6-106.32-20.85Z"/>
      <path class="cls-4" d="M1271.1,21.75c-41.94,0-74.67-10.6-106.32-20.85-2.56-.83-5.1-1.65-7.65-2.47h-184.44c-2.54,.82-5.09,1.64-7.65,2.47-31.65,10.25-64.38,20.85-106.32,20.85s-74.67-10.6-106.32-20.85c-2.56-.83-5.1-1.65-7.65-2.47h-184.44c-2.54,.82-5.09,1.64-7.65,2.47-31.65,10.25-64.38,20.85-106.32,20.85S371.66,11.15,340.01,.9c-2.56-.83-5.1-1.65-7.65-2.47H147.92c-2.54,.82-5.09,1.64-7.65,2.47-31.65,10.25-64.38,20.85-106.32,20.85-11.94,0-23.8-.88-35.86-2.64v48.38c12.12,1.93,23.97,2.89,35.86,2.89,38.58,0,68.35-9.64,99.87-19.85,31.65-10.25,64.38-20.85,106.32-20.85s74.67,10.6,106.32,20.85c31.52,10.21,61.29,19.85,99.87,19.85s68.35-9.64,99.87-19.85c31.65-10.25,64.38-20.85,106.32-20.85s74.67,10.6,106.32,20.85c31.52,10.21,61.29,19.85,99.87,19.85s68.35-9.64,99.87-19.85c31.65-10.25,64.38-20.85,106.32-20.85s74.67,10.6,106.32,20.85c31.52,10.21,61.29,19.85,99.87,19.85,2.33,0,4.66-.04,6.99-.12V21.65c-2.33,.07-4.66,.1-6.99,.1Z"/>
      <path class="cls-4" d="M1164.77,61.94c-31.52-10.21-61.29-19.85-99.87-19.85s-68.35,9.64-99.87,19.85c-31.65,10.25-64.38,20.85-106.32,20.85s-74.67-10.6-106.32-20.85c-31.52-10.21-61.29-19.85-99.87-19.85s-68.35,9.64-99.87,19.85c-31.65,10.25-64.38,20.85-106.32,20.85s-74.67-10.6-106.33-20.85c-31.52-10.21-61.29-19.85-99.87-19.85s-68.35,9.64-99.87,19.85c-31.65,10.25-64.38,20.85-106.32,20.85-11.93,0-23.79-.88-35.86-2.64v48.38c12.12,1.93,23.96,2.89,35.86,2.89,38.58,0,68.35-9.64,99.87-19.85,31.65-10.25,64.38-20.85,106.32-20.85s74.67,10.6,106.32,20.85c31.52,10.21,61.29,19.85,99.87,19.85s68.35-9.64,99.87-19.85c31.65-10.25,64.38-20.85,106.32-20.85s74.67,10.6,106.32,20.85c31.52,10.21,61.29,19.85,99.87,19.85s68.35-9.64,99.87-19.85c31.65-10.25,64.38-20.85,106.32-20.85s74.67,10.6,106.32,20.85c31.52,10.21,61.29,19.85,99.87,19.85,2.33,0,4.66-.04,6.99-.12v-48.62c-2.33,.07-4.66,.1-6.99,.1-41.94,0-74.67-10.6-106.32-20.85Z"/>
      <path class="cls-3" d="M1326.86,381.69l-4.61-11.9c-15.14,3.36-29.66,5.22-44.16,5.67v12.42c16.07-.46,32.1-2.49,48.77-6.19Z"/>
      <path class="cls-3" d="M1171.23,355.73c-31.65-10.25-64.38-20.85-106.32-20.85s-74.67,10.6-106.32,20.85c-31.52,10.2-61.29,19.85-99.87,19.85s-68.35-9.64-99.87-19.85c-31.65-10.25-64.38-20.85-106.32-20.85s-74.67,10.6-106.32,20.85c-31.52,10.21-61.29,19.85-99.87,19.85s-68.35-9.64-99.87-19.85c-31.65-10.25-64.38-20.85-106.32-20.85s-74.67,10.6-106.32,20.85c-31.52,10.2-61.29,19.85-99.87,19.85-11.9,0-23.74-.97-35.86-2.89v12.66c12.06,1.76,23.92,2.64,35.86,2.64,41.94,0,74.67-10.6,106.32-20.85,31.52-10.2,61.29-19.85,99.87-19.85s68.35,9.64,99.87,19.85c31.65,10.25,64.38,20.85,106.33,20.85s74.67-10.6,106.32-20.85c31.52-10.2,61.29-19.85,99.87-19.85s68.35,9.64,99.87,19.85c31.65,10.25,64.38,20.85,106.32,20.85s74.67-10.6,106.32-20.85c31.52-10.21,61.29-19.85,99.87-19.85s68.35,9.64,99.87,19.85c31.65,10.25,64.38,20.85,106.32,20.85,2.33,0,4.66-.03,6.99-.1v-12.42c-2.33,.07-4.66,.12-6.99,.12-38.58,0-68.35-9.64-99.87-19.85Z"/>
      <path class="cls-3" d="M1326.86,320.65l-4.61-11.9c-15.14,3.36-29.66,5.22-44.16,5.67v12.42c16.07-.46,32.1-2.49,48.77-6.19Z"/>
      <path class="cls-3" d="M1171.23,294.69c-31.65-10.25-64.38-20.85-106.32-20.85s-74.67,10.6-106.32,20.85c-31.52,10.2-61.29,19.85-99.87,19.85s-68.35-9.64-99.87-19.85c-31.65-10.25-64.38-20.85-106.32-20.85s-74.67,10.6-106.32,20.85c-31.52,10.21-61.29,19.85-99.87,19.85s-68.35-9.64-99.87-19.85c-31.65-10.25-64.38-20.85-106.32-20.85s-74.67,10.6-106.32,20.85c-31.52,10.2-61.29,19.85-99.87,19.85-11.9,0-23.74-.96-35.86-2.89v12.66c12.06,1.76,23.92,2.64,35.86,2.64,41.94,0,74.67-10.6,106.32-20.85,31.52-10.2,61.29-19.85,99.87-19.85s68.35,9.64,99.87,19.85c31.65,10.25,64.38,20.85,106.33,20.85s74.67-10.6,106.32-20.85c31.52-10.2,61.29-19.85,99.87-19.85s68.35,9.64,99.87,19.85c31.65,10.25,64.38,20.85,106.32,20.85s74.67-10.6,106.32-20.85c31.52-10.21,61.29-19.85,99.87-19.85s68.35,9.64,99.87,19.85c31.65,10.25,64.38,20.85,106.32,20.85,2.33,0,4.66-.03,6.99-.1v-12.42c-2.33,.07-4.66,.12-6.99,.12-38.58,0-68.35-9.64-99.87-19.85Z"/>
      <path class="cls-3" d="M1326.86,259.61l-4.62-11.9c-15.14,3.36-29.65,5.22-44.16,5.67v12.42c16.08-.46,32.1-2.49,48.78-6.19Z"/>
      <path class="cls-3" d="M1171.23,233.65c-31.65-10.25-64.38-20.85-106.32-20.85s-74.67,10.6-106.32,20.85c-31.52,10.21-61.29,19.85-99.87,19.85s-68.35-9.64-99.87-19.85c-31.65-10.25-64.38-20.85-106.32-20.85s-74.67,10.6-106.32,20.85c-31.52,10.21-61.29,19.85-99.87,19.85s-68.35-9.64-99.87-19.85c-31.65-10.25-64.38-20.85-106.32-20.85s-74.67,10.6-106.32,20.85c-31.52,10.21-61.29,19.85-99.87,19.85-11.9,0-23.74-.97-35.86-2.89v12.66c12.06,1.76,23.92,2.64,35.86,2.64,41.94,0,74.67-10.6,106.32-20.85,31.52-10.21,61.29-19.85,99.87-19.85s68.35,9.64,99.87,19.85c31.65,10.25,64.38,20.85,106.33,20.85s74.67-10.6,106.32-20.85c31.52-10.21,61.29-19.85,99.87-19.85s68.35,9.64,99.87,19.85c31.65,10.25,64.38,20.85,106.32,20.85s74.67-10.6,106.32-20.85c31.52-10.21,61.29-19.85,99.87-19.85s68.35,9.64,99.87,19.85c31.65,10.25,64.38,20.85,106.32,20.85,2.33,0,4.66-.03,6.99-.1v-12.42c-2.33,.07-4.66,.12-6.99,.12-38.58,0-68.35-9.64-99.87-19.85Z"/>
      <path class="cls-3" d="M1326.86,198.57l-4.61-11.9c-15.14,3.36-29.66,5.22-44.16,5.67v12.42c16.07-.46,32.09-2.49,48.77-6.19Z"/>
      <path class="cls-3" d="M1171.23,172.61c-31.65-10.25-64.38-20.85-106.32-20.85s-74.67,10.6-106.32,20.85c-31.52,10.21-61.29,19.84-99.87,19.84s-68.35-9.64-99.87-19.84c-31.65-10.25-64.38-20.85-106.32-20.85s-74.67,10.6-106.32,20.85c-31.52,10.21-61.29,19.84-99.87,19.84s-68.35-9.64-99.87-19.84c-31.65-10.25-64.38-20.85-106.32-20.85s-74.67,10.6-106.32,20.85c-31.52,10.21-61.29,19.84-99.87,19.84-11.89,0-23.74-.97-35.86-2.89v12.66c12.06,1.76,23.92,2.64,35.86,2.64,41.94,0,74.67-10.6,106.32-20.85,31.52-10.21,61.29-19.85,99.87-19.85s68.35,9.64,99.87,19.85c31.65,10.25,64.38,20.85,106.33,20.85s74.67-10.6,106.32-20.85c31.52-10.21,61.29-19.85,99.87-19.85s68.35,9.64,99.87,19.85c31.65,10.25,64.38,20.85,106.32,20.85s74.67-10.6,106.32-20.85c31.52-10.21,61.29-19.85,99.87-19.85s68.35,9.64,99.87,19.85c31.65,10.25,64.38,20.85,106.32,20.85,2.33,0,4.66-.03,6.99-.1v-12.42c-2.33,.07-4.66,.12-6.99,.12-38.58,0-68.35-9.64-99.87-19.84Z"/>
      <path class="cls-3" d="M1326.86,137.53l-4.61-11.9c-15.14,3.36-29.66,5.22-44.16,5.67v12.42c16.07-.46,32.09-2.49,48.77-6.19Z"/>
      <path class="cls-3" d="M1171.23,111.57c-31.65-10.25-64.38-20.85-106.32-20.85s-74.67,10.6-106.32,20.85c-31.52,10.21-61.29,19.85-99.87,19.85s-68.35-9.64-99.87-19.85c-31.65-10.25-64.38-20.85-106.32-20.85s-74.67,10.6-106.32,20.85c-31.52,10.21-61.29,19.85-99.87,19.85s-68.35-9.64-99.87-19.85c-31.65-10.25-64.38-20.85-106.32-20.85s-74.67,10.6-106.32,20.85c-31.52,10.21-61.29,19.85-99.87,19.85-11.89,0-23.74-.97-35.86-2.89v12.66c12.06,1.76,23.92,2.64,35.86,2.64,41.94,0,74.67-10.6,106.32-20.85,31.52-10.21,61.29-19.85,99.87-19.85s68.35,9.64,99.87,19.85c31.65,10.25,64.38,20.85,106.33,20.85s74.67-10.6,106.32-20.85c31.52-10.21,61.29-19.85,99.87-19.85s68.35,9.64,99.87,19.85c31.65,10.25,64.38,20.85,106.32,20.85s74.67-10.6,106.32-20.85c31.52-10.21,61.29-19.85,99.87-19.85s68.35,9.64,99.87,19.85c31.65,10.25,64.38,20.85,106.32,20.85,2.33,0,4.66-.03,6.99-.1v-12.42c-2.33,.07-4.66,.12-6.99,.12-38.58,0-68.35-9.64-99.87-19.85Z"/>
      <path class="cls-3" d="M1326.86,76.49l-4.62-11.9c-15.14,3.36-29.66,5.22-44.16,5.68v12.42c16.07-.46,32.1-2.5,48.78-6.19Z"/>
      <path class="cls-3" d="M1171.23,50.54c-31.65-10.25-64.38-20.85-106.32-20.85s-74.67,10.6-106.32,20.85c-31.52,10.21-61.29,19.85-99.87,19.85s-68.35-9.64-99.87-19.85c-31.65-10.25-64.38-20.85-106.32-20.85s-74.67,10.6-106.32,20.85c-31.52,10.21-61.29,19.85-99.87,19.85s-68.35-9.64-99.87-19.85c-31.65-10.25-64.38-20.85-106.32-20.85s-74.67,10.6-106.32,20.85c-31.52,10.21-61.29,19.85-99.87,19.85-11.89,0-23.73-.97-35.86-2.89v12.66c12.07,1.76,23.93,2.64,35.86,2.64,41.94,0,74.67-10.6,106.32-20.85,31.52-10.21,61.29-19.85,99.87-19.85s68.35,9.64,99.87,19.85c31.65,10.25,64.38,20.85,106.33,20.85s74.67-10.6,106.32-20.85c31.52-10.21,61.29-19.85,99.87-19.85s68.35,9.64,99.87,19.85c31.65,10.25,64.38,20.85,106.32,20.85s74.67-10.6,106.32-20.85c31.52-10.21,61.29-19.85,99.87-19.85s68.35,9.64,99.87,19.85c31.65,10.25,64.38,20.85,106.32,20.85,2.33,0,4.66-.03,6.99-.1v-12.42c-2.33,.07-4.66,.12-6.99,.12-38.58,0-68.35-9.64-99.87-19.85Z"/>
      <path class="cls-3" d="M1326.86,15.45l-4.62-11.9c-15.14,3.36-29.66,5.22-44.16,5.67v12.42c16.07-.46,32.1-2.49,48.78-6.19Z"/>
      <path class="cls-3" d="M140.27,.9c2.56-.83,5.11-1.65,7.65-2.47h-42.82c-21.83,6.26-44.37,10.91-71.15,10.91-11.9,0-23.74-.97-35.86-2.89v12.66c12.06,1.76,23.92,2.64,35.86,2.64,41.94,0,74.67-10.6,106.32-20.85Z"/>
      <path class="cls-3" d="M752.39,.9c31.65,10.25,64.38,20.85,106.32,20.85s74.67-10.6,106.32-20.85c2.56-.83,5.1-1.65,7.65-2.47h-42.82c-21.83,6.26-44.37,10.91-71.16,10.91s-49.33-4.65-71.15-10.91h-42.82c2.54,.82,5.09,1.64,7.65,2.47Z"/>
      <path class="cls-3" d="M1164.77,.9c31.65,10.25,64.38,20.85,106.32,20.85,2.33,0,4.66-.03,6.99-.1V9.22c-2.33,.07-4.66,.12-6.99,.12-26.79,0-49.33-4.65-71.15-10.91h-42.82c2.54,.82,5.09,1.64,7.65,2.47Z"/>
      <path class="cls-3" d="M340.01,.9c31.65,10.25,64.38,20.85,106.33,20.85s74.67-10.6,106.32-20.85c2.56-.83,5.11-1.65,7.65-2.47h-42.81c-21.83,6.26-44.37,10.91-71.16,10.91s-49.33-4.65-71.16-10.91h-42.82c2.54,.82,5.09,1.64,7.65,2.47Z"/>
    </g>
  </g>
</svg>