<?xml version="1.0" encoding="UTF-8"?>
<svg id="Layer_1" data-name="Layer 1" xmlns="http://www.w3.org/2000/svg" viewBox="0 0 2213.75 1672.08">
  <defs>
    <style>
      .cls-1 {
        fill: #334e9e;
      }
    </style>
  </defs>
  <path class="cls-1" d="M2103.92,1575.39c-67.62,0-120.38-17.08-171.41-33.61-50.81-16.45-98.8-31.99-161-31.99s-110.19,15.54-161,31.99c-51.02,16.52-103.79,33.61-171.41,33.61s-120.38-17.08-171.41-33.61c-50.81-16.45-98.8-31.99-161-31.99s-110.19,15.54-161,31.99c-51.03,16.52-103.79,33.61-171.41,33.61s-120.38-17.08-171.41-33.61c-50.81-16.45-98.81-31.99-161-31.99s-110.19,15.54-161,31.99c-51.03,16.52-103.79,33.61-171.41,33.61-29.71,0-59.12-3.32-89.9-10.14l7.44-19.19c28.33,6.28,55.3,9.34,82.46,9.34,62.2,0,110.19-15.54,161-31.99,51.03-16.52,103.79-33.61,171.41-33.61s120.38,17.08,171.41,33.61c50.81,16.45,98.81,31.99,161,31.99s110.19-15.54,161-31.99c51.02-16.52,103.79-33.61,171.41-33.61s120.38,17.08,171.41,33.61c50.81,16.45,98.8,31.99,161,31.99s110.19-15.54,161-31.99c51.03-16.52,103.79-33.61,171.41-33.61s120.38,17.08,171.41,33.61c50.81,16.45,98.81,31.99,161,31.99,27.17,0,54.14-3.05,82.46-9.34l7.44,19.19c-30.77,6.83-60.18,10.14-89.9,10.14Z"/>
  <path class="cls-1" d="M2103.92,1476.98c-67.62,0-120.38-17.09-171.41-33.61-50.81-16.45-98.8-31.99-161-31.99s-110.19,15.54-161,31.99c-51.02,16.52-103.79,33.61-171.41,33.61s-120.38-17.09-171.41-33.61c-50.81-16.45-98.8-31.99-161-31.99s-110.19,15.54-161,31.99c-51.03,16.52-103.79,33.61-171.41,33.61s-120.38-17.09-171.41-33.61c-50.81-16.45-98.81-31.99-161-31.99s-110.19,15.54-161,31.99c-51.03,16.52-103.79,33.61-171.41,33.61-29.71,0-59.12-3.32-89.9-10.14l7.44-19.19c28.33,6.28,55.31,9.33,82.46,9.33,62.19,0,110.19-15.54,161-31.99,51.03-16.52,103.79-33.61,171.41-33.61s120.38,17.09,171.41,33.61c50.81,16.45,98.81,31.99,161,31.99s110.19-15.54,161-31.99c51.02-16.52,103.79-33.61,171.41-33.61s120.38,17.09,171.41,33.61c50.81,16.45,98.8,31.99,161,31.99s110.19-15.54,161-31.99c51.03-16.52,103.79-33.61,171.41-33.61s120.38,17.09,171.41,33.61c50.81,16.45,98.81,31.99,161,31.99,27.15,0,54.13-3.05,82.46-9.33l7.44,19.19c-30.79,6.83-60.19,10.14-89.9,10.14Z"/>
  <path class="cls-1" d="M2103.92,1378.58c-67.62,0-120.38-17.09-171.41-33.61-50.81-16.45-98.8-31.99-161-31.99s-110.19,15.54-161,31.99c-51.02,16.52-103.79,33.61-171.41,33.61s-120.38-17.09-171.41-33.61c-50.81-16.45-98.8-31.99-161-31.99s-110.19,15.54-161,31.99c-51.03,16.52-103.79,33.61-171.41,33.61s-120.38-17.09-171.41-33.61c-50.81-16.45-98.81-31.99-161-31.99s-110.19,15.54-161,31.99c-51.03,16.52-103.79,33.61-171.41,33.61-29.71,0-59.12-3.32-89.9-10.14l7.44-19.19c28.33,6.28,55.3,9.34,82.46,9.34,62.19,0,110.19-15.54,161-31.99,51.03-16.52,103.79-33.61,171.41-33.61s120.38,17.09,171.41,33.61c50.81,16.45,98.81,31.99,161,31.99s110.19-15.54,161-31.99c51.02-16.52,103.79-33.61,171.41-33.61s120.38,17.09,171.41,33.61c50.81,16.45,98.8,31.99,161,31.99s110.19-15.54,161-31.99c51.03-16.52,103.79-33.61,171.41-33.61s120.38,17.09,171.41,33.61c50.81,16.45,98.81,31.99,161,31.99,27.16,0,54.13-3.05,82.46-9.34l7.44,19.19c-30.78,6.83-60.19,10.14-89.9,10.14Z"/>
  <path class="cls-1" d="M2103.92,1280.18c-67.62,0-120.38-17.09-171.41-33.61-50.81-16.45-98.8-31.99-161-31.99s-110.19,15.54-161,31.99c-51.02,16.52-103.79,33.61-171.41,33.61s-120.38-17.09-171.41-33.61c-50.81-16.45-98.8-31.99-161-31.99s-110.19,15.54-161,31.99c-51.03,16.52-103.79,33.61-171.41,33.61s-120.38-17.09-171.41-33.61c-50.81-16.45-98.81-31.99-161-31.99s-110.19,15.54-161,31.99c-51.03,16.52-103.79,33.61-171.41,33.61-29.71,0-59.12-3.32-89.9-10.14l7.44-19.19c28.33,6.28,55.3,9.34,82.46,9.34,62.19,0,110.19-15.54,161-31.99,51.03-16.52,103.79-33.61,171.41-33.61s120.38,17.09,171.41,33.61c50.81,16.45,98.81,31.99,161,31.99s110.19-15.54,161-31.99c51.02-16.52,103.79-33.61,171.41-33.61s120.38,17.09,171.41,33.61c50.81,16.45,98.8,31.99,161,31.99s110.19-15.54,161-31.99c51.03-16.52,103.79-33.61,171.41-33.61s120.38,17.09,171.41,33.61c50.81,16.45,98.81,31.99,161,31.99,27.17,0,54.14-3.05,82.46-9.34l7.44,19.19c-30.77,6.83-60.18,10.14-89.9,10.14Z"/>
  <path class="cls-1" d="M2103.92,1181.78c-67.62,0-120.38-17.08-171.41-33.61-50.81-16.45-98.8-31.99-161-31.99s-110.19,15.54-161,31.99c-51.02,16.52-103.79,33.61-171.41,33.61s-120.38-17.08-171.41-33.61c-50.81-16.45-98.8-31.99-161-31.99s-110.19,15.54-161,31.99c-51.03,16.52-103.79,33.61-171.41,33.61s-120.38-17.08-171.41-33.61c-50.81-16.45-98.81-31.99-161-31.99s-110.19,15.54-161,31.99c-51.03,16.52-103.79,33.61-171.41,33.61-29.72,0-59.13-3.32-89.9-10.15l7.44-19.19c28.32,6.28,55.3,9.34,82.46,9.34,62.2,0,110.19-15.54,161-31.99,51.03-16.52,103.79-33.61,171.41-33.61s120.38,17.08,171.41,33.61c50.81,16.45,98.81,31.99,161,31.99s110.19-15.54,161-31.99c51.02-16.52,103.79-33.61,171.41-33.61s120.38,17.08,171.41,33.61c50.81,16.45,98.8,31.99,161,31.99s110.19-15.54,161-31.99c51.03-16.52,103.79-33.61,171.41-33.61s120.38,17.08,171.41,33.61c50.81,16.45,98.81,31.99,161,31.99,27.16,0,54.13-3.05,82.46-9.34l7.44,19.19c-30.78,6.83-60.19,10.15-89.9,10.15Z"/>
  <path class="cls-1" d="M2103.92,1083.37c-67.62,0-120.38-17.08-171.41-33.61-50.81-16.45-98.8-31.99-161-31.99s-110.19,15.54-161,31.99c-51.02,16.52-103.79,33.61-171.41,33.61s-120.38-17.08-171.41-33.61c-50.81-16.45-98.8-31.99-161-31.99s-110.19,15.54-161,31.99c-51.03,16.52-103.79,33.61-171.41,33.61s-120.38-17.08-171.41-33.61c-50.81-16.45-98.81-31.99-161-31.99s-110.19,15.54-161,31.99c-51.03,16.52-103.79,33.61-171.41,33.61-29.71,0-59.12-3.32-89.9-10.15l7.44-19.19c28.33,6.28,55.31,9.34,82.46,9.34,62.2,0,110.19-15.54,161-31.99,51.03-16.52,103.79-33.61,171.41-33.61s120.38,17.08,171.41,33.61c50.81,16.45,98.81,31.99,161,31.99s110.19-15.54,161-31.99c51.02-16.52,103.79-33.61,171.41-33.61s120.38,17.08,171.41,33.61c50.81,16.45,98.8,31.99,161,31.99s110.19-15.54,161-31.99c51.03-16.52,103.79-33.61,171.41-33.61s120.38,17.08,171.41,33.61c50.81,16.45,98.81,31.99,161,31.99,27.15,0,54.12-3.05,82.46-9.34l7.44,19.19c-30.79,6.83-60.19,10.15-89.9,10.15Z"/>
  <path class="cls-1" d="M2103.92,984.97c-67.62,0-120.38-17.08-171.41-33.61-50.81-16.45-98.8-31.99-161-31.99s-110.19,15.54-161,31.99c-51.02,16.52-103.79,33.61-171.41,33.61s-120.38-17.08-171.41-33.61c-50.81-16.45-98.8-31.99-161-31.99s-110.19,15.54-161,31.99c-51.03,16.52-103.79,33.61-171.41,33.61s-120.38-17.08-171.41-33.61c-50.81-16.45-98.81-31.99-161-31.99s-110.19,15.54-161,31.99c-51.03,16.52-103.79,33.61-171.41,33.61-29.71,0-59.12-3.32-89.9-10.15l7.44-19.19c28.33,6.28,55.31,9.34,82.46,9.34,62.2,0,110.19-15.54,161-31.99,51.03-16.52,103.79-33.61,171.41-33.61s120.38,17.08,171.41,33.61c50.81,16.45,98.81,31.99,161,31.99s110.19-15.54,161-31.99c51.02-16.52,103.79-33.61,171.41-33.61s120.38,17.08,171.41,33.61c50.81,16.45,98.8,31.99,161,31.99s110.19-15.54,161-31.99c51.03-16.52,103.79-33.61,171.41-33.61s120.38,17.08,171.41,33.61c50.81,16.45,98.81,31.99,161,31.99,27.15,0,54.12-3.05,82.46-9.34l7.44,19.19c-30.79,6.83-60.19,10.15-89.9,10.15Z"/>
  <path class="cls-1" d="M2103.92,886.56c-67.62,0-120.38-17.08-171.41-33.61-50.81-16.45-98.8-31.99-161-31.99s-110.19,15.54-161,31.99c-51.02,16.52-103.79,33.61-171.41,33.61s-120.38-17.08-171.41-33.61c-50.81-16.45-98.8-31.99-161-31.99s-110.19,15.54-161,31.99c-51.03,16.52-103.79,33.61-171.41,33.61s-120.38-17.08-171.41-33.61c-50.81-16.45-98.81-31.99-161-31.99s-110.19,15.54-161,31.99c-51.03,16.52-103.79,33.61-171.41,33.61-29.72,0-59.13-3.32-89.9-10.14l7.44-19.19c28.32,6.28,55.29,9.33,82.46,9.33,62.2,0,110.19-15.54,161-31.99,51.03-16.52,103.79-33.61,171.41-33.61s120.38,17.08,171.41,33.61c50.81,16.45,98.81,31.99,161,31.99s110.19-15.54,161-31.99c51.02-16.52,103.79-33.61,171.41-33.61s120.38,17.08,171.41,33.61c50.81,16.45,98.8,31.99,161,31.99s110.19-15.54,161-31.99c51.03-16.52,103.79-33.61,171.41-33.61s120.38,17.08,171.41,33.61c50.81,16.45,98.81,31.99,161,31.99,27.16,0,54.13-3.05,82.46-9.33l7.44,19.19c-30.78,6.82-60.18,10.14-89.9,10.14Z"/>
  <path class="cls-1" d="M2103.92,788.16c-67.62,0-120.38-17.08-171.41-33.61-50.81-16.45-98.8-31.99-161-31.99s-110.19,15.54-161,31.99c-51.02,16.52-103.79,33.61-171.41,33.61s-120.38-17.08-171.41-33.61c-50.81-16.45-98.8-31.99-161-31.99s-110.19,15.54-161,31.99c-51.03,16.52-103.79,33.61-171.41,33.61s-120.38-17.08-171.41-33.61c-50.81-16.45-98.81-31.99-161-31.99s-110.19,15.54-161,31.99c-51.03,16.52-103.79,33.61-171.41,33.61-29.71,0-59.12-3.32-89.9-10.14l7.44-19.19c28.33,6.28,55.3,9.34,82.46,9.34,62.2,0,110.19-15.54,161-31.99,51.03-16.52,103.79-33.61,171.41-33.61s120.38,17.08,171.41,33.61c50.81,16.45,98.81,31.99,161,31.99s110.19-15.54,161-31.99c51.02-16.52,103.79-33.61,171.41-33.61s120.38,17.08,171.41,33.61c50.81,16.45,98.8,31.99,161,31.99s110.19-15.54,161-31.99c51.03-16.52,103.79-33.61,171.41-33.61s120.38,17.08,171.41,33.61c50.81,16.45,98.81,31.99,161,31.99,27.16,0,54.13-3.05,82.46-9.34l7.44,19.19c-30.78,6.83-60.19,10.14-89.9,10.14Z"/>
  <path class="cls-1" d="M2103.92,689.76c-67.62,0-120.38-17.08-171.41-33.61-50.81-16.45-98.8-31.99-161-31.99s-110.19,15.54-161,31.99c-51.02,16.52-103.79,33.61-171.41,33.61s-120.38-17.08-171.41-33.61c-50.81-16.45-98.8-31.99-161-31.99s-110.19,15.54-161,31.99c-51.03,16.52-103.79,33.61-171.41,33.61s-120.38-17.08-171.41-33.61c-50.81-16.45-98.81-31.99-161-31.99s-110.19,15.54-161,31.99c-51.03,16.52-103.79,33.61-171.41,33.61-29.72,0-59.13-3.32-89.9-10.14l7.44-19.19c28.32,6.28,55.29,9.33,82.46,9.33,62.2,0,110.19-15.54,161-31.99,51.03-16.52,103.79-33.61,171.41-33.61s120.38,17.08,171.41,33.61c50.81,16.45,98.81,31.99,161,31.99s110.19-15.54,161-31.99c51.02-16.52,103.79-33.61,171.41-33.61s120.38,17.08,171.41,33.61c50.81,16.45,98.8,31.99,161,31.99s110.19-15.54,161-31.99c51.03-16.52,103.79-33.61,171.41-33.61s120.38,17.08,171.41,33.61c50.81,16.45,98.81,31.99,161,31.99,27.16,0,54.13-3.05,82.46-9.33l7.44,19.19c-30.78,6.82-60.18,10.14-89.9,10.14Z"/>
  <path class="cls-1" d="M2103.92,591.35c-67.62,0-120.38-17.09-171.41-33.61-50.81-16.45-98.8-31.99-161-31.99s-110.19,15.54-161,31.99c-51.02,16.52-103.79,33.61-171.41,33.61s-120.38-17.09-171.41-33.61c-50.81-16.45-98.8-31.99-161-31.99s-110.19,15.54-161,31.99c-51.03,16.52-103.79,33.61-171.41,33.61s-120.38-17.09-171.41-33.61c-50.81-16.45-98.81-31.99-161-31.99s-110.19,15.54-161,31.99c-51.03,16.52-103.79,33.61-171.41,33.61-29.71,0-59.12-3.32-89.9-10.14l7.44-19.19c28.33,6.28,55.3,9.33,82.46,9.33,62.19,0,110.19-15.54,161-31.99,51.03-16.52,103.79-33.61,171.41-33.61s120.38,17.09,171.41,33.61c50.81,16.45,98.81,31.99,161,31.99s110.19-15.54,161-31.99c51.02-16.52,103.79-33.61,171.41-33.61s120.38,17.09,171.41,33.61c50.81,16.45,98.8,31.99,161,31.99s110.19-15.54,161-31.99c51.03-16.52,103.79-33.61,171.41-33.61s120.38,17.09,171.41,33.61c50.81,16.45,98.81,31.99,161,31.99,27.17,0,54.14-3.05,82.46-9.33l7.44,19.19c-30.77,6.83-60.18,10.14-89.9,10.14Z"/>
  <path class="cls-1" d="M2103.92,492.95c-67.62,0-120.38-17.08-171.41-33.61-50.81-16.45-98.8-31.99-161-31.99s-110.19,15.54-161,31.99c-51.02,16.52-103.79,33.61-171.41,33.61s-120.38-17.08-171.41-33.61c-50.81-16.45-98.8-31.99-161-31.99s-110.19,15.54-161,31.99c-51.03,16.52-103.79,33.61-171.41,33.61s-120.38-17.08-171.41-33.61c-50.81-16.45-98.81-31.99-161-31.99s-110.19,15.54-161,31.99c-51.03,16.52-103.79,33.61-171.41,33.61-29.71,0-59.12-3.32-89.9-10.14l7.44-19.19c28.33,6.28,55.31,9.33,82.46,9.33,62.2,0,110.19-15.54,161-31.99,51.03-16.52,103.79-33.61,171.41-33.61s120.38,17.08,171.41,33.61c50.81,16.45,98.81,31.99,161,31.99s110.19-15.54,161-31.99c51.02-16.52,103.79-33.61,171.41-33.61s120.38,17.08,171.4,33.61c50.81,16.45,98.81,31.99,161,31.99s110.19-15.54,161-31.99c51.03-16.52,103.79-33.61,171.41-33.61s120.38,17.08,171.41,33.61c50.81,16.45,98.81,31.99,161,31.99,27.15,0,54.13-3.05,82.46-9.33l7.44,19.19c-30.79,6.82-60.19,10.14-89.9,10.14Z"/>
  <path class="cls-1" d="M2103.92,394.55c-67.62,0-120.38-17.09-171.41-33.61-50.81-16.45-98.8-32-161-32s-110.19,15.54-161,32c-51.02,16.52-103.79,33.61-171.41,33.61s-120.38-17.09-171.41-33.61c-50.81-16.45-98.8-32-161-32s-110.19,15.54-161,32c-51.03,16.52-103.79,33.61-171.41,33.61s-120.38-17.09-171.41-33.61c-50.81-16.45-98.81-32-161-32s-110.19,15.54-161,32c-51.03,16.52-103.79,33.61-171.41,33.61-29.71,0-59.12-3.32-89.9-10.15l7.44-19.19c28.33,6.28,55.31,9.34,82.46,9.34,62.19,0,110.19-15.54,161-31.99,51.03-16.52,103.79-33.61,171.41-33.61s120.38,17.09,171.41,33.61c50.81,16.45,98.81,31.99,161,31.99s110.19-15.54,161-31.99c51.02-16.52,103.79-33.61,171.41-33.61s120.38,17.09,171.41,33.61c50.81,16.45,98.8,31.99,161,31.99s110.19-15.54,161-31.99c51.03-16.52,103.79-33.61,171.41-33.61s120.38,17.09,171.41,33.61c50.81,16.45,98.81,31.99,161,31.99,27.15,0,54.12-3.05,82.46-9.34l7.44,19.19c-30.79,6.83-60.19,10.15-89.9,10.15Z"/>
  <path class="cls-1" d="M2103.92,296.15c-67.62,0-120.38-17.09-171.41-33.61-50.81-16.45-98.8-31.99-161-31.99s-110.19,15.54-161,31.99c-51.02,16.52-103.79,33.61-171.41,33.61s-120.38-17.09-171.41-33.61c-50.81-16.45-98.8-31.99-161-31.99s-110.19,15.54-161,31.99c-51.03,16.52-103.79,33.61-171.41,33.61s-120.38-17.09-171.41-33.61c-50.81-16.45-98.81-31.99-161-31.99s-110.19,15.54-161,31.99c-51.03,16.52-103.79,33.61-171.41,33.61-29.69,0-59.1-3.32-89.9-10.15l7.44-19.19c28.35,6.28,55.32,9.34,82.46,9.34,62.19,0,110.19-15.54,161-32,51.03-16.52,103.79-33.61,171.41-33.61s120.38,17.09,171.41,33.61c50.81,16.45,98.81,32,161,32s110.19-15.54,161-32c51.02-16.52,103.79-33.61,171.41-33.61s120.38,17.09,171.41,33.61c50.81,16.45,98.8,32,161,32s110.19-15.54,161-32c51.03-16.52,103.79-33.61,171.41-33.61s120.38,17.09,171.41,33.61c50.81,16.45,98.81,32,161,32,27.16,0,54.13-3.05,82.46-9.34l7.44,19.19c-30.79,6.83-60.19,10.15-89.9,10.15Z"/>
  <path class="cls-1" d="M2103.92,197.74c-67.62,0-120.38-17.08-171.41-33.61-50.81-16.45-98.8-31.99-161-31.99s-110.19,15.54-161,31.99c-51.02,16.52-103.79,33.61-171.41,33.61s-120.38-17.08-171.41-33.61c-50.81-16.45-98.8-31.99-161-31.99s-110.19,15.54-161,31.99c-51.03,16.52-103.79,33.61-171.41,33.61s-120.38-17.08-171.41-33.61c-50.81-16.45-98.81-31.99-161-31.99s-110.19,15.54-161,31.99c-51.03,16.52-103.79,33.61-171.41,33.61-29.72,0-59.13-3.32-89.9-10.15l7.44-19.19c28.32,6.28,55.3,9.34,82.46,9.34,62.2,0,110.19-15.54,161-31.99,51.03-16.52,103.79-33.61,171.41-33.61s120.38,17.08,171.41,33.61c50.81,16.45,98.81,31.99,161,31.99s110.19-15.54,161-31.99c51.02-16.52,103.79-33.61,171.41-33.61s120.38,17.08,171.41,33.61c50.81,16.45,98.8,31.99,161,31.99s110.19-15.54,161-31.99c51.03-16.52,103.79-33.61,171.41-33.61s120.38,17.08,171.41,33.61c50.81,16.45,98.81,31.99,161,31.99,27.16,0,54.13-3.05,82.46-9.34l7.44,19.19c-30.78,6.83-60.19,10.15-89.9,10.15Z"/>
</svg>