<?xml version="1.0" encoding="UTF-8"?>
<svg id="Layer_1" data-name="Layer 1" xmlns="http://www.w3.org/2000/svg" viewBox="0 0 194.09 176.32">
  <defs>
    <style>
      .cls-1 {
        fill: #fff;
      }

      .cls-2 {
        fill: #231f20;
      }
    </style>
  </defs>
  <g>
    <g>
      <rect class="cls-1" x="17.25" y="34.32" width="144.99" height="110.36" rx="22.85" ry="22.85"/>
      <path class="cls-2" d="M139.39,147.68H40.1c-14.25,0-25.85-11.59-25.85-25.85V57.17c0-14.25,11.6-25.85,25.85-25.85h99.29c14.25,0,25.85,11.6,25.85,25.85V121.83c0,14.25-11.6,25.85-25.85,25.85ZM40.1,37.32c-10.94,0-19.85,8.9-19.85,19.85V121.83c0,10.94,8.9,19.85,19.85,19.85h99.29c10.94,0,19.85-8.9,19.85-19.85V57.17c0-10.94-8.9-19.85-19.85-19.85H40.1Z"/>
    </g>
    <path class="cls-2" d="M81.43,81.11c-.45-.82-1.05-1.54-1.75-2.1,.3-.02,.62-.03,.95-.02,.57,.01,1.04-.44,1.06-1.02,0-.27-.09-.52-.26-.71-.5-.63-1.05-1.19-1.65-1.68-2.07-1.71-4.68-2.61-7.35-2.62-2.66-.01-5.48,.73-7.69,2.68-.72,.64-1.59,2.05-1.73,2.17,0,0,.01,0,.02,0-1.58-.35-3.25-.41-4.93-.13l-4.37,.74c-1.97,.33-3.76,1.1-5.29,2.19,0,0,0,0,0,0-.17-.07-2.04-1.41-2.21-1.47-2.79-.96-5.64-.88-8.14,0-2.52,.89-4.69,2.6-6.08,4.91-.4,.66-.74,1.37-1,2.13-.1,.23-.11,.5-.01,.76,.2,.54,.8,.81,1.33,.61,.31-.12,.61-.21,.9-.29-.48,.77-.8,1.64-.96,2.56-.3,1.74-.02,3.67,.96,5.37,.11,.19,.24,.39,.38,.6,.07,.1,.16,.19,.27,.27,.47,.32,1.12,.19,1.44-.28l.19-.28c.16,.58,.41,1.11,.72,1.59,.52,.8,1.23,1.42,2.03,1.83,.81,.41,1.73,.59,2.64,.49,.43-.05,2.73-.56,3.15-.73-.11-.42-.11-.47-.19-.91,.05,.31,.11,.61,.19,.91,1.59,6.53,8.02,10.85,14.74,9.71l4.37-.74c7.02-1.19,11.79-7.92,10.61-14.96l-.13-.8h0c.07,.44,.21,1.2,.25,1.64,.45,.03,2.13-.43,2.55-.53,.9-.2,1.7-.67,2.34-1.33,.62-.64,1.08-1.47,1.32-2.4,.14-.55,.19-1.13,.16-1.73l.27,.2c.46,.34,1.11,.25,1.45-.21,.08-.11,.13-.22,.17-.34,.07-.25,.12-.48,.17-.69,.37-1.93,0-3.84-.85-5.39Zm-27.58,15.32c-1.24-1.37-2.46-1.26-3.65,.32-.63,.65-1.31,.16-1.39-.48-.11-4.79,5.87-4.68,6.06-.7,0,.79-.53,1.33-1.02,.86Zm6.8,7.76h0c-1.94,.33-3.79-.99-4.11-2.93l-.57-3.37c-.33-1.94,.99-3.79,2.92-4.12h0c1.94-.33,3.79,.99,4.11,2.93l.57,3.37c.33,1.94-.99,3.79-2.92,4.12Zm7.42-10.47c-1.64-1.1-2.82-.8-3.55,.9-.3,.61-.98,.27-1.24-.48-1.13-3.82,4.49-5.9,5.95-1.34,.13,.63-.35,1.32-1.16,.91Z"/>
    <rect class="cls-2" x="32.79" y="46.67" width="113.9" height="14.51" rx="5.08" ry="5.08"/>
    <path class="cls-2" d="M51.83,135.72h-11.87c-4,0-7.26-3.26-7.26-7.26s3.26-7.26,7.26-7.26h11.87c4,0,7.26,3.26,7.26,7.26s-3.26,7.26-7.26,7.26Zm-11.87-12.52c-2.9,0-5.26,2.36-5.26,5.26s2.36,5.26,5.26,5.26h11.87c2.9,0,5.26-2.36,5.26-5.26s-2.36-5.26-5.26-5.26h-11.87Z"/>
    <path class="cls-2" d="M140.43,135.72H69.38c-4,0-7.26-3.26-7.26-7.26s3.26-7.26,7.26-7.26h71.05c4,0,7.26,3.26,7.26,7.26s-3.26,7.26-7.26,7.26Zm-71.05-12.52c-2.9,0-5.26,2.36-5.26,5.26s2.36,5.26,5.26,5.26h71.05c2.9,0,5.26-2.36,5.26-5.26s-2.36-5.26-5.26-5.26H69.38Z"/>
    <g>
      <path class="cls-2" d="M134.97,116.67h-36.25c-4,0-7.26-3.26-7.26-7.26v-32.93c0-4,3.26-7.26,7.26-7.26h36.25c4,0,7.26,3.26,7.26,7.26v32.93c0,4-3.26,7.26-7.26,7.26Zm-36.25-45.45c-2.9,0-5.26,2.36-5.26,5.26v32.93c0,2.9,2.36,5.26,5.26,5.26h36.25c2.9,0,5.26-2.36,5.26-5.26v-32.93c0-2.9-2.36-5.26-5.26-5.26h-36.25Z"/>
      <path class="cls-2" d="M135.13,79.15h-36.58c-.28,0-.5-.22-.5-.5s.22-.5,.5-.5h36.58c.28,0,.5,.22,.5,.5s-.22,.5-.5,.5Z"/>
      <path class="cls-2" d="M135.13,85.19h-36.58c-.28,0-.5-.22-.5-.5s.22-.5,.5-.5h36.58c.28,0,.5,.22,.5,.5s-.22,.5-.5,.5Z"/>
      <path class="cls-2" d="M121.67,91.24h-23.11c-.22,0-.4-.18-.4-.4s.18-.4,.4-.4h23.11c.22,0,.4,.18,.4,.4s-.18,.4-.4,.4Z"/>
    </g>
  </g>
  <g>
    <path class="cls-1" d="M42.81,55.8c.21,.16,.36,.31,.47,.44,.1,.14,.15,.28,.15,.43,0,.15-.07,.29-.2,.44-.12,.15-.28,.24-.47,.27-.19,.03-.38-.02-.55-.14-.14-.1-.37-.27-.68-.5-.31-.23-.55-.41-.74-.53,.03,.33-.01,.61-.14,.85-.12,.24-.34,.36-.64,.35-.22,0-.39-.08-.53-.23-.14-.14-.2-.33-.2-.55v-4.91c0-.19,.05-.35,.16-.49,.1-.13,.23-.21,.38-.25,.15-.03,.3-.03,.44,0,.15,.03,.27,.11,.38,.25,.1,.13,.16,.3,.16,.5v1.79c.1-.09,.25-.24,.43-.46,.18-.22,.35-.41,.52-.57s.33-.25,.48-.28c.29-.06,.54,.04,.74,.31,.21,.27,.22,.52,.05,.76-.13,.17-.36,.44-.69,.82-.33,.38-.57,.65-.7,.82,.78,.58,1.17,.87,1.19,.89Z"/>
    <path class="cls-1" d="M50.85,51.9c.03,.15,.07,.4,.1,.76,.04,.35,.05,.78,.05,1.28,0,.5-.05,.9-.15,1.18-.11,.29-.26,.57-.44,.86-.18,.28-.4,.53-.65,.74s-.5,.37-.76,.47c-.26,.1-.53,.11-.8,0-.27-.1-.52-.31-.73-.63-.18,.31-.44,.54-.77,.69-.33,.15-.67,.19-1.02,.12-.35-.07-.63-.24-.86-.52-.18-.24-.33-.56-.47-.95-.14-.39-.23-.73-.28-1-.05-.28-.12-.69-.21-1.23-.09-.54-.14-.88-.17-1.01-.02-.17-.04-.29-.05-.37-.01-.08-.02-.18-.01-.3s.02-.21,.06-.28c.04-.06,.1-.13,.18-.2,.08-.07,.19-.12,.33-.16,.32-.1,.55-.05,.7,.15,.15,.2,.28,.56,.4,1.07,.03,.17,.07,.42,.12,.77,.05,.34,.09,.66,.13,.95s.1,.59,.18,.9c.08,.31,.17,.55,.28,.72,.21-.22,.36-.51,.46-.86,.1-.35,.18-.79,.24-1.32s.1-.86,.13-.99c.03-.22,.13-.39,.29-.51s.33-.17,.5-.16,.34,.08,.48,.22c.14,.13,.22,.31,.24,.52,0,.1,.02,.29,.03,.56,.01,.27,.02,.48,.04,.62s.03,.32,.05,.54c.02,.22,.06,.42,.1,.61,.04,.18,.1,.36,.16,.54,.36-.21,.61-.63,.74-1.27s.1-1.37-.09-2.18c-.05-.18-.04-.35,.04-.49,.07-.14,.18-.25,.32-.31,.14-.06,.28-.09,.43-.1,.15,0,.29,.04,.42,.14,.13,.1,.22,.24,.27,.41Z"/>
    <path class="cls-1" d="M55.93,56.17c0,.14,0,.24-.01,.32s-.03,.17-.07,.26-.11,.18-.2,.24c-.1,.06-.22,.12-.38,.17-1.35,.38-2.4,.29-3.13-.25-.53-.38-.77-.89-.73-1.54,.06-.7,.43-1.3,1.13-1.8,.46-.33,1.03-.57,1.69-.72,0-.18-.05-.35-.14-.51-.08-.16-.21-.25-.37-.27-.46-.03-.84,.02-1.16,.17-.16,.08-.32,.11-.47,.08-.16-.02-.28-.09-.38-.2-.1-.11-.17-.23-.22-.36-.05-.13-.05-.27-.01-.42,.04-.15,.13-.27,.26-.38,.51-.38,1.27-.51,2.28-.4,.32,.05,.6,.17,.85,.35,.24,.19,.43,.42,.57,.71,.14,.28,.24,.57,.31,.86,.07,.29,.12,.6,.14,.92,.02,.33,.04,1.24,.06,2.75Zm-1.63-.32c.06-.02,.09-.1,.11-.22,.02-.12,.03-.26,.02-.41s0-.3-.01-.46c0-.15,0-.26,0-.34-.45,.07-.79,.23-1.03,.48-.09,.08-.17,.17-.24,.26-.07,.1-.13,.2-.17,.31-.04,.11-.04,.21,0,.31,.05,.09,.15,.16,.3,.2,.29,.08,.62,.04,1.01-.13Z"/>
    <path class="cls-1" d="M58.05,51.66c.06,2.99,.08,4.67,.07,5.03,0,.22-.07,.39-.2,.53-.14,.14-.31,.21-.52,.21-.31,0-.52-.07-.62-.22-.1-.14-.15-.39-.16-.73-.02-1.42-.05-3.04-.1-4.85-.03-.26,.02-.49,.16-.69,.14-.2,.33-.31,.58-.31,.26,0,.46,.09,.6,.31s.21,.45,.19,.71Z"/>
    <path class="cls-1" d="M60.39,56.61c0,.19-.05,.36-.14,.49-.09,.14-.21,.23-.35,.27s-.29,.06-.43,.04c-.14-.02-.27-.09-.38-.21-.11-.12-.18-.27-.2-.46-.03-.4-.06-.98-.09-1.73-.03-.76-.05-1.23-.07-1.43-.02-.3,.03-.56,.15-.78,.12-.22,.31-.33,.58-.32,.14,0,.26,.02,.38,.08,.12,.06,.21,.15,.28,.26s.11,.24,.11,.38c.1,1.9,.16,3.03,.17,3.41Zm-.92-5.51c-.21,0-.38-.07-.53-.21-.14-.14-.22-.31-.22-.52s.07-.37,.22-.52c.14-.15,.32-.22,.52-.22,.21,0,.39,.06,.53,.21,.15,.15,.22,.33,.22,.55,0,.21-.08,.38-.22,.52s-.31,.21-.52,.2Z"/>
  </g>
  <path class="cls-2" d="M173.01,147.34c-1.14,0-2.27-.5-3.03-1.46l-10.49-13.12-4.36,3.19c-1.19,.87-2.77,.99-4.08,.31-1.31-.68-2.12-2.04-2.09-3.52l.46-24.24c.02-1.22,.62-2.37,1.62-3.08,1-.71,2.27-.92,3.44-.54l25.13,7.99c1.42,.45,2.45,1.67,2.66,3.14s-.43,2.93-1.66,3.77l-4.37,2.96,8.64,11.89c1.25,1.71,.89,4.11-.81,5.38l-8.74,6.56c-.7,.52-1.51,.78-2.33,.78Zm-12.82-23.79c1.14,0,2.27,.5,3.03,1.46l10.46,13.08,2.67-2-8.75-12.04c-.62-.85-.86-1.91-.68-2.95,.18-1.04,.77-1.95,1.64-2.54l1.07-.73-12.56-3.99-.21,11.22,1.04-.76c.69-.5,1.49-.75,2.29-.75Z"/>
  <polygon class="cls-1" points="152.84 132.81 153.3 108.57 178.43 116.55 170.75 121.77 181.74 136.9 173.01 143.45 160.2 127.43 152.84 132.81"/>
</svg>