<?xml version="1.0" encoding="UTF-8"?>
<svg id="Layer_1" data-name="Layer 1" xmlns="http://www.w3.org/2000/svg" viewBox="0 0 181.31 158.06">
  <defs>
    <style>
      .cls-1 {
        fill: #fff;
      }

      .cls-2 {
        fill: #231f20;
      }
    </style>
  </defs>
  <g>
    <path class="cls-2" d="M82.07,155.61c-1.28,0-2.54-.44-3.54-1.29l-11.17-9.35-14.55,4.37c-1.97,.59-4.09,.04-5.53-1.42s-1.94-3.61-1.31-5.56l16.25-50.36c.55-1.7,1.89-3.03,3.59-3.57,1.71-.54,3.57-.22,4.99,.86,10.88,8.21,20.24,10.69,23.15,9.79,1.95-.61,4.07-.09,5.52,1.34,1.45,1.43,2,3.54,1.42,5.5l-13.52,45.74c-.53,1.78-1.92,3.18-3.7,3.72-.52,.16-1.06,.24-1.6,.24Zm-13.45-22.29c1.28,0,2.54,.44,3.54,1.29l7,5.86,9.03-30.55c-6.38-1.15-12.97-4.57-17.73-7.51l-10.76,33.35,7.34-2.2c.52-.16,1.05-.23,1.59-.23Z"/>
    <path class="cls-1" d="M95.59,104.36l-13.52,45.74-13.45-11.26-17.4,5.22,16.25-50.36s18.18,13.75,28.12,10.65Z"/>
  </g>
  <g>
    <path class="cls-2" d="M112.26,152.37c-.39,0-.79-.04-1.18-.13-1.82-.4-3.31-1.69-3.97-3.42l-17.01-44.56c-.73-1.9-.35-4.05,.99-5.59,1.34-1.54,3.41-2.22,5.4-1.76,2.97,.67,12.11-2.52,22.33-11.55,1.34-1.18,3.17-1.65,4.91-1.24,1.74,.41,3.18,1.63,3.86,3.28l20.09,48.95c.78,1.9,.44,4.07-.88,5.64-1.32,1.57-3.4,2.28-5.4,1.85l-14.85-3.23-10.41,10.18c-1.04,1.02-2.43,1.57-3.86,1.57Zm-9.21-45.11l11.36,29.76,6.52-6.38c1.33-1.3,3.21-1.84,5.03-1.45l7.48,1.63-13.3-32.42c-4.52,3.29-10.83,7.21-17.1,8.85Z"/>
    <path class="cls-1" d="M95.25,102.29l17.01,44.56,12.54-12.26,17.75,3.86-20.09-48.95s-17.06,15.11-27.22,12.79Z"/>
  </g>
  <g>
    <g>
      <path class="cls-2" d="M95.25,116.84c-29.75,0-53.96-24.21-53.96-53.96S65.5,8.92,95.25,8.92s53.96,24.21,53.96,53.96-24.21,53.96-53.96,53.96Zm0-96.88c-23.67,0-42.92,19.25-42.92,42.92s19.25,42.92,42.92,42.92,42.92-19.25,42.92-42.92-19.25-42.92-42.92-42.92Z"/>
      <circle class="cls-1" cx="95.25" cy="62.88" r="48.44"/>
    </g>
    <circle cx="95.25" cy="62.88" r="35.67"/>
  </g>
  <g>
    <path class="cls-1" d="M73.4,71.91v-4.98h25.6v4.98h-25.6Zm1.31-10.54v-4.98h25.57v4.98h-25.57Zm2.82,16.3l3.36-27.03h5.25l-3.4,27.03h-5.21Zm10,0l3.36-27.03h5.21l-3.32,27.03h-5.25Z"/>
    <path class="cls-1" d="M106.19,77.67v-24.29l3.32,3.21h-8.34v-5.95h12.67v27.03h-7.65Z"/>
  </g>
  <g>
    <path class="cls-1" d="M158.22,14.32s-2.74,11.74-10.31,11.26c0,0,10.37,1.38,10.63,14.02,0,0-2.78-12.76,10.12-12.76,0,0-10.44-2.25-10.44-12.52Z"/>
    <path class="cls-2" d="M158.54,41.02c-.66,0-1.25-.46-1.39-1.12-.02-.11-.28-1.34-.29-3.05-1.47-8.66-8.8-9.81-9.14-9.86-.76-.11-1.3-.8-1.22-1.56,.08-.76,.75-1.33,1.51-1.28,6.32,.41,8.81-10.05,8.83-10.16,.17-.71,.83-1.18,1.55-1.09,.72,.08,1.26,.69,1.26,1.42,0,8.96,8.94,11.04,9.32,11.13,.71,.16,1.19,.82,1.11,1.55-.08,.72-.69,1.27-1.42,1.27-3.33,0-5.75,.92-7.21,2.73-1.36,1.69-1.71,3.89-1.74,5.59,.15,.92,.23,1.91,.25,2.97,.01,.73-.53,1.36-1.26,1.45-.06,0-.11,0-.17,0Zm-5.93-15.18c1.85,1.06,3.89,2.75,5.35,5.43,.33-.72,.74-1.42,1.27-2.07,1.11-1.38,2.57-2.39,4.35-3.02-2.16-1.32-4.5-3.39-5.79-6.56-1.11,2.28-2.79,4.78-5.18,6.21Z"/>
  </g>
  <g>
    <path class="cls-1" d="M28.44,27.45s-3.51,15.06-13.22,14.44c0,0,13.3,1.77,13.62,17.97,0,0-3.56-16.36,12.98-16.36,0,0-13.38-2.89-13.38-16.05Z"/>
    <path class="cls-2" d="M28.84,61.69c-.85,0-1.6-.59-1.79-1.44-.03-.15-.37-1.74-.37-3.94-.74-4.35-2.7-7.72-5.86-10.04-2.91-2.13-5.82-2.57-5.85-2.57-.98-.13-1.68-1.01-1.58-1.99,.1-.98,.97-1.72,1.94-1.65,.15,0,.3,.01,.45,.01,7.71,0,10.84-12.91,10.88-13.04,.21-.91,1.07-1.5,1.99-1.4,.92,.11,1.62,.89,1.62,1.82,0,11.55,11.45,14.16,11.94,14.27,.91,.2,1.53,1.05,1.43,1.98-.1,.93-.88,1.63-1.82,1.63-4.26,0-7.37,1.17-9.24,3.49-1.76,2.17-2.2,5.03-2.23,7.24,.18,1.17,.29,2.42,.32,3.76,.02,.94-.68,1.74-1.62,1.85-.07,0-.14,.01-.22,.01Zm-7.6-19.46c2.37,1.36,4.98,3.53,6.86,6.97,.42-.92,.95-1.82,1.63-2.66,1.43-1.77,3.29-3.06,5.58-3.87-2.76-1.69-5.77-4.35-7.43-8.41-1.43,2.92-3.58,6.13-6.64,7.96Z"/>
  </g>
  <g>
    <path class="cls-1" d="M38.55,53.41s-2.74,11.74-10.31,11.26c0,0,10.37,1.38,10.63,14.02,0,0-2.78-12.76,10.12-12.76,0,0-10.44-2.25-10.44-12.52Z"/>
    <path class="cls-2" d="M38.86,80.11c-.66,0-1.25-.46-1.39-1.12-.02-.11-.28-1.34-.29-3.05-1.47-8.66-8.8-9.81-9.14-9.86-.76-.11-1.3-.8-1.22-1.56s.75-1.33,1.51-1.28c6.31,.4,8.81-10.06,8.83-10.16,.17-.71,.83-1.17,1.55-1.09,.72,.08,1.26,.69,1.26,1.42,0,8.96,8.94,11.04,9.32,11.13,.71,.16,1.19,.82,1.11,1.55-.08,.72-.69,1.27-1.42,1.27-3.32,0-5.74,.92-7.2,2.72-1.37,1.7-1.72,3.92-1.74,5.65,.14,.91,.23,1.89,.25,2.93,.01,.73-.53,1.36-1.26,1.45-.06,0-.11,0-.17,0Zm-5.93-15.18c1.85,1.06,3.89,2.75,5.35,5.43,.33-.72,.74-1.42,1.27-2.07,1.11-1.38,2.57-2.39,4.35-3.02-2.15-1.32-4.5-3.39-5.79-6.56-1.11,2.28-2.79,4.78-5.18,6.21Z"/>
  </g>
</svg>