<?xml version="1.0" encoding="UTF-8"?>
<svg id="Layer_1" data-name="Layer 1" xmlns="http://www.w3.org/2000/svg" viewBox="0 0 237.43 199.63">
  <defs>
    <style>
      .cls-1 {
        fill: #fff;
      }

      .cls-2 {
        fill: #231f20;
      }
    </style>
  </defs>
  <g>
    <polygon class="cls-1" points="153.7 52.22 188.8 52.22 215.27 86.28 207.59 100.91 157.6 100.91 153.7 52.22"/>
    <polyline class="cls-1" points="215.74 87.82 168 88.15 168 40.29 86.7 40.29 86.7 136.01 215.74 136.01 215.74 87.82 189.27 53.76 168 53.76"/>
    <path class="cls-2" d="M215.27,137.97H86.22c-1.93,0-3.5-1.57-3.5-3.5s1.57-3.5,3.5-3.5h125.55v-43.49l-24.68-31.76h-19.56c-1.93,0-3.5-1.57-3.5-3.5s1.57-3.5,3.5-3.5h21.27c1.08,0,2.1,.5,2.76,1.35l26.47,34.06c.48,.61,.74,1.37,.74,2.15v48.19c0,1.93-1.57,3.5-3.5,3.5Z"/>
    <path class="cls-2" d="M216.21,91.65h-48.69c-1.93,0-3.5-1.57-3.5-3.5V42.25H86.22c-1.93,0-3.5-1.57-3.5-3.5s1.57-3.5,3.5-3.5h81.3c1.93,0,3.5,1.57,3.5,3.5v45.9h45.19c1.93,0,3.5,1.57,3.5,3.5s-1.57,3.5-3.5,3.5Z"/>
    <circle class="cls-2" cx="80.78" cy="136.01" r="21.09"/>
    <circle class="cls-2" cx="176.19" cy="136.01" r="21.09"/>
    <path class="cls-2" d="M45.63,57.22h46.03c2.62,0,5.12-2.3,5-5s-2.2-5-5-5H45.63c-2.62,0-5.12,2.3-5,5s2.2,5,5,5h0Z"/>
    <path class="cls-2" d="M15.2,75.48H58.45c2.62,0,5.12-2.3,5-5s-2.2-5-5-5H15.2c-2.62,0-5.12,2.3-5,5s2.2,5,5,5h0Z"/>
    <path class="cls-2" d="M40.88,120.67h35.15c2.62,0,5.12-2.3,5-5s-2.2-5-5-5H40.88c-2.62,0-5.12,2.3-5,5s2.2,5,5,5h0Z"/>
    <path class="cls-2" d="M29.8,99.93h39.82c2.62,0,5.12-2.3,5-5s-2.2-5-5-5H29.8c-2.62,0-5.12,2.3-5,5s2.2,5,5,5h0Z"/>
  </g>
  <g>
    <g>
      <rect class="cls-2" x="104.17" y="70.48" width="47.05" height="30.8" rx="8.43" ry="8.43"/>
      <path class="cls-1" d="M142.79,102.81h-30.19c-5.49,0-9.96-4.47-9.96-9.96v-13.94c0-5.49,4.47-9.96,9.96-9.96h30.19c5.49,0,9.96,4.47,9.96,9.96v13.94c0,5.49-4.47,9.96-9.96,9.96Zm-30.19-30.8c-3.81,0-6.91,3.1-6.91,6.9v13.94c0,3.81,3.1,6.91,6.91,6.91h30.19c3.81,0,6.91-3.1,6.91-6.91v-13.94c0-3.81-3.1-6.9-6.91-6.9h-30.19Z"/>
    </g>
    <g>
      <polyline class="cls-2" points="108.06 74.08 126.07 84.08 146.81 73.69"/>
      <path class="cls-1" d="M126.07,85.49c-.24,0-.47-.06-.69-.18l-18.01-9.99c-.68-.38-.93-1.24-.55-1.93,.38-.68,1.25-.93,1.93-.55l17.35,9.63,20.07-10.05c.7-.35,1.55-.07,1.9,.63s.07,1.55-.63,1.9l-20.74,10.39c-.2,.1-.42,.15-.63,.15Z"/>
    </g>
  </g>
</svg>