<?xml version="1.0" encoding="UTF-8"?>
<svg id="Layer_1" data-name="Layer 1" xmlns="http://www.w3.org/2000/svg" viewBox="0 0 1080 854.32">
  <defs>
    <style>
      .cls-1 {
        fill: #27a8e0;
      }

      .cls-2 {
        fill: #27265f;
      }
    </style>
  </defs>
  <path class="cls-2" d="M1022.85,226.07c-8.25-15.01-18.03-29.18-29.1-42.11-38-44.44-91.24-74.7-149.92-85.21-29.75-5.33-59.24-5.98-87.64-1.92-32.68,4.67-63.03,15.46-90.23,32.08-6.44,3.93-12.59,8.6-18.5,13.64-21.04-5.17-42.62-7.82-64.5-7.93l-74.32-.35c-27.07-.14-53.59,3.59-79.15,11.09-7.14-6.74-11.14-9.83-17.07-13.11-53.46-29.46-115.48-40.17-174.64-30.16-58.77,9.95-112.33,39.68-150.82,83.73-11.21,12.83-21.15,26.89-29.56,41.82-9.82,16.52-13.3,35.92-9.79,54.93,2.01,10.82,6.14,20.71,11.88,29.34-11.92,40.08-10.63,83.42,3.82,123.11,1.88,5.18,4.14,10.6,6.72,16.13,4.12,8.85,9.79,16.77,16.83,23.55,8.36,8.06,18.18,14.06,28.83,17.77,10.33,18.48,24.37,34.55,41.18,47.05,22.21,16.5,48.29,26.08,75.45,27.72,1.41,.08,3.85,.12,7.04,.11,34.29,115.29,141.24,199.16,265.78,199.75l74.32,.36c.45,0,.9,0,1.35,0,37.05,0,73.12-7.26,107.22-21.57,33.22-13.95,63.12-33.96,88.86-59.47,25.73-25.51,46.01-55.23,60.27-88.34,4.86-11.29,8.95-22.81,12.26-34.52,25.26-2.22,49.53-11.37,70.51-26.62,16.93-12.32,31.14-28.25,41.68-46.65,10.69-3.59,20.56-9.49,29.01-17.45,7.13-6.72,12.89-14.59,17.1-23.41,2.64-5.5,4.95-10.87,6.87-15.98,14.92-39.6,16.7-82.88,5.25-123.08,5.84-8.56,10.09-18.41,12.21-29.19,3.75-18.95,.49-38.43-9.18-55.1ZM364.16,549.6c19.13,6.73,40.34,5.1,59.02-4.49,1.38,1.08,2.8,2.1,4.25,3.06l-.19,32.76c-.09,15.74,2.8,31.04,8.41,45.27-31.68-16.43-57.16-43.53-71.49-76.6Zm325.69,49.02c-7.81,7.74-16.27,14.56-25.25,20.39,3.76-11.61,5.83-23.97,5.9-36.8l.19-32.81c1.49-.97,2.96-2,4.39-3.09,14.54,7.64,30.66,10.43,46.19,8.15-7.7,16.19-18.26,31.12-31.42,44.17Zm168.5-182.36c-.38,3.48-1.26,6.79-2.61,9.81-2.01,4.52-4.97,8.29-8.53,10.88-2.04,1.49-5.3,3.3-9.18,3.49-2.28,.11-5.09,.32-8.64,.58-5.41,.4-19.78,1.46-24.43,1.26,.13,0,2.99,.14,7.24,1.19l-7.95,32.29-19.49-.11-.06-2.46-.48-3.47c-6.08-43.89-27.93-69.12-45.19-82.56-23.39-18.21-52.68-26.16-82.48-22.38-28.29,3.59-53.85,17.38-71.95,38.85-.92,1.09-1.82,2.2-2.69,3.31-7.19-2-14.6-3.34-22.14-3.99l-1.43-.41-8.51-.04c-11.1-.06-21.84,1.39-32.06,4.14-.82-1.08-1.67-2.15-2.54-3.2-17.83-21.66-43.21-35.74-71.44-39.65-29.77-4.12-59.17,3.5-82.79,21.46-17.43,13.25-39.59,38.26-46.18,82.1l-.52,3.46-.13,3.5c-.15,4.28,.04,8.52,.57,12.69l-28.3-.16-10.5-44.51c1.83-.43,3.01-.6,3.09-.61-6.43,.89-32.21,2.15-39.87,2.07-3.66-.35-6.67-2.09-8.58-3.5-3.53-2.63-6.43-6.4-8.36-10.87-1.32-3.07-2.17-6.38-2.5-9.83l-11.36-115.51,73.33-82.11c.16,0,.32,0,.48,0,22.2,0,44.19,5.24,64.77,15.49,2.88,2.78,6.62,6.46,9.24,9.03,15.12,14.85,19.19,18.84,26.62,23.34l31.56-52.17,26.91,55.14c21.01-10.01,43.5-15.02,66.78-14.91l74.32,.35c19.88,.1,39.31,4.01,57.75,11.62l25.56-53.44,29.15,49.34c7.63-4.51,12.54-9.44,18.75-15.69,3.54-3.56,12.88-12.96,17.01-15.79,22.54-13.7,46.96-17.12,67.89-16.4l72.59,83.06-12.72,115.32Z"/>
  <path class="cls-1" d="M958.18,320.32c-5.14-14.82-12.89-28.38-22.85-39.79,5.05,.49,10.28,1.27,15.69,2.35,9.4,1.84,18.53-4.31,20.38-13.73,.89-4.49-.04-8.91-2.27-12.51-6.41-11.81-13.92-22.67-22.34-32.52-29.31-34.28-69.79-56.65-113.85-64.54-43.81-7.85-92.59-3.69-134.75,22.07-13.8,8.43-32.16,29.34-34.79,30.9,.11,.06,.21,.13,.32,.19-25.05-10.35-52.4-16.17-81.05-16.3l-74.32-.35c-33.44-.16-65.21,7.37-93.65,20.92,.03-.02,.06-.03,.09-.05-2.61-1.58-29.56-29.1-32.2-30.56-43.24-23.83-90.59-30.78-134.5-23.35-44.14,7.47-84.88,29.46-114.59,63.45-8.54,9.77-16.17,20.57-22.72,32.31-2.27,3.58-3.25,7.99-2.42,12.49,1.75,9.44,10.81,15.67,20.23,13.93,5.43-1.04,10.66-1.77,15.72-2.21-10.1,11.31-18.01,24.8-23.31,39.57-10.04,27.91-10.84,60.5,.4,91.39,1.26,3.47,2.79,7.14,4.61,11.03,.88,1.89,2.11,3.66,3.71,5.19,6.9,6.64,17.88,6.42,24.53-.49l3.95-4.05c.99,10.07,3.51,19.56,7.25,28.24,6.35,14.71,16.22,27.08,28.25,36.01,12.27,9.12,26.82,14.71,42.25,15.63,7.29,.43,46.72-1.28,54.16-3.04-.6-7.3-.51-8.17-.47-15.62-.03,5.25,.13,10.46,.47,15.62,7.41,112.38,101.17,202.25,215.28,202.8l74.32,.35c119.35,.57,217.57-96.79,218.26-216.35l.08-13.56h0c-.04,7.46,.06,20.47-.64,27.76,7.42,1.83,36.38-.95,43.68-1.31,15.45-.78,30.06-6.23,42.44-15.23,12.12-8.82,22.14-21.1,28.66-35.74,3.85-8.65,6.47-18.11,7.58-28.17l3.91,4.09c6.57,6.98,17.55,7.3,24.53,.73,1.61-1.52,2.87-3.27,3.76-5.16,1.86-3.86,3.44-7.53,4.73-10.98,11.61-30.78,11.17-63.38,1.46-91.38Zm-499.47,173.41c-16.59-26.2-36.98-27.94-61.14-5.23-12.26,8.9-22.03-1.15-21.64-11.96,11.92-79.33,110.47-60.31,102.08,5.92-2.36,13.05-12.64,20.5-19.3,11.27Zm89.82,147.75h-.01c-32.9-.16-59.67-27.25-59.48-60.21l.33-57.33c.19-32.95,27.27-59.79,60.17-59.64h.01c32.9,.16,59.66,27.25,59.47,60.21l-.33,57.33c-.19,32.96-27.27,59.8-60.16,59.64Zm152.7-151.54c-23.9-22.93-44.3-21.38-61.19,4.65-6.78,9.16-16.97,1.61-19.17-11.46-7.63-66.3,91.13-84.39,102.14-4.94,.26,10.81-9.62,20.77-21.77,11.75Z"/>
</svg>