<?xml version="1.0" encoding="UTF-8"?>
<svg id="Layer_1" data-name="Layer 1" xmlns="http://www.w3.org/2000/svg" viewBox="0 0 740.9 369.06">
  <defs>
    <style>
      .cls-1 {
        fill: #27a8e0;
      }

      .cls-2 {
        fill: #27265f;
      }
    </style>
  </defs>
  <g>
    <path class="cls-2" d="M80.2,307.64l-.79-.05c-4.93-.29-9.39-1.06-13.26-2.3-3.89-1.24-7.34-2.82-10.22-4.69-3.83-2.47-6.94-6.04-9.21-10.6-1.61-3.2-2.78-6.09-3.56-8.78-.86-2.9-1.4-6.59-1.69-11.56-.24-4.06-.37-7.5-.37-10.19s.06-6.45,.18-11.32c.11-4.96,.17-8.64,.17-11.24v-.14c.22-19.35,.22-49.12,0-88.48-.23-38.46-.34-62.84-.34-70.51,0-13.72,6.9-24.56,19.43-30.53,10.87-5.39,22.29-4.61,33.03,2.26,10.58,6.77,16.11,17.09,15.59,29.1,.64,24.05,1.16,42.98,1.55,56.71,20.94-20.55,35.76-41.93,44.2-63.77,5.07-12.85,14.55-20.87,27.45-23.28,12.8-2.38,24.08,1.08,32.66,10,5.24,5.46,12.92,17.36,5.52,35.86l-.17,.41c-16.95,38.4-43.87,74.44-80.12,107.31,33.09,22.18,57.29,38.61,72.06,48.92l.73,.55c6.71,5.46,10.18,13.21,9.76,21.83-.35,7.05-2.7,13.68-6.99,19.73-4.14,6.25-10.07,10.64-17.18,12.69-6.57,1.91-13.19,1.98-19.66,.23-5.6-1.51-11.03-4.09-16.1-7.66-10.9-7.5-27.39-18.23-49.16-31.98-.19,3.82-.4,7.45-.63,10.87-.54,7.97-3.52,14.9-8.85,20.6-5.54,5.93-13.37,9.28-23.25,9.96l-.79,.05Zm-10.6-27.97c.74,.47,2.02,1.13,4.16,1.81,1.7,.55,3.8,.91,6.27,1.1,2.88-.28,4.98-.99,5.95-2.03,1.35-1.45,2.02-3.06,2.17-5.23,.33-4.84,.61-10.17,.84-15.84,.21-5.41,.45-10.77,.69-15.94l1.02-21.31,18.09,11.31c31.28,19.55,54.26,34.37,68.32,44.05l.12,.09c2.72,1.92,5.43,3.23,8.27,4,2.05,.56,4.01,.52,6.18-.11,1.47-.42,2.43-1.16,3.32-2.54l.36-.52c1.58-2.19,2.36-4.27,2.47-6.56,.03-.57,.03-.7-.28-.99-16.65-11.62-45.16-30.93-84.76-57.41l-13.85-9.26,12.76-10.71c39.58-33.21,68.42-69.85,85.71-108.92,2.41-6.14,.65-7.97-.41-9.07-1.95-2.03-4.52-3.77-10.05-2.74-3.17,.59-6.43,1.95-8.74,7.8-12.41,32.12-36.38,62.94-71.21,91.52l-19.1,15.68-1.31-24.68c-.15-2.83-.56-14.65-2.42-84.37v-.53s.02-.53,.02-.53c.16-2.78-.45-4.85-4.07-7.17-3.77-2.41-6.05-2.13-8.51-.9l-.25,.12c-3.92,1.85-5.24,3.87-5.24,7.99,0,7.62,.12,31.95,.34,70.36,.22,39.45,.22,69.34,0,88.84,0,2.79-.06,6.63-.18,11.75-.11,4.62-.17,8.32-.17,10.73,0,2.2,.11,5.14,.32,8.73,.25,4.31,.67,5.82,.71,5.98,.26,.88,.79,2.36,1.94,4.66,.26,.52,.44,.76,.51,.84Zm-.09-.06s0,0,0,0c0,0,0,0,0,0Z"/>
    <path class="cls-2" d="M273.6,307.67c-3.9,0-7.82-.38-11.76-1.15-12.93-2.52-23.7-9.06-32-19.45l-.31-.41c-5.77-7.86-10.87-18.13-15.16-30.51-4.09-11.76-6.97-22.04-8.57-30.54-1.52-8.06-3.51-19.71-6.08-35.62-2.56-15.8-4.12-25.16-4.77-28.62l-.09-.53c-.68-4.79-1.2-8.32-1.54-10.6-.46-3.09-.62-6.65-.47-10.89,.18-5.5,1.26-9.96,3.32-13.62,1.83-3.26,4.51-6.29,8.2-9.27,3.66-2.96,8.25-5.27,13.64-6.88,19.4-6.23,29.6,2.9,33.96,8.9,5.29,7.29,9.73,18.84,13.59,35.32l.11,.53c.96,5.08,2.15,12.7,3.54,22.65l3.79,27.21c.73,5.28,1.73,10.76,2.97,16.39,2.21-8.7,4.05-19.47,5.47-32.08,1.73-15.37,2.95-24.88,3.7-29.05,1.43-9.62,6.02-17.47,13.26-22.72,7.01-5.08,14.63-7.38,22.65-6.83,7.93,.54,15.12,3.72,21.37,9.46,6.44,5.9,10.21,13.95,10.91,23.27,.24,3.18,.54,8.76,.88,16.57,.33,7.6,.67,13.39,1,17.22,.33,3.91,.85,9.02,1.52,15.21,.25,2.34,.55,4.6,.89,6.78,1.25-3.41,2.31-7.26,3.2-11.57,3.39-16.46,2.56-35.69-2.48-57.17-2.11-8.21-1.44-15.85,1.99-22.71,3.37-6.74,8.69-11.81,15.39-14.68,5.43-2.33,11.15-3.6,16.97-3.76,7.15-.19,13.86,2.05,19.95,6.66,6.03,4.57,10.15,10.81,12.26,18.56l.18,.73c1.02,4.87,2.04,12.39,3.13,22.99,1.07,10.49,1.56,23.35,1.44,38.22-.13,15.98-1.76,28.32-4.98,37.71l-.18,.48c-3.52,9.04-8.2,18.08-13.9,26.89-5.92,9.13-12.97,17.22-20.97,24.06-8.13,6.95-16.66,12.24-25.36,15.71-10.38,4.16-21.11,4.25-31.86,.29-5.85-2.15-11.33-5.57-16.37-10.21-5.01,4.79-10.84,8.68-17.44,11.62-8.13,3.63-16.5,5.45-24.99,5.45Zm-24.08-36.01c4.53,5.58,10.12,8.96,17.1,10.32,7.48,1.46,14.61,.61,21.79-2.59,7.16-3.19,12.57-8.01,16.54-14.74l10.06-17.04,11.07,16.4c4.67,6.92,9.71,11.41,14.96,13.34,4.92,1.81,9.35,1.8,13.95-.04,6.16-2.46,12.34-6.33,18.39-11.5,6.17-5.27,11.63-11.55,16.23-18.65,4.73-7.3,8.6-14.74,11.49-22.11,2.25-6.71,3.45-16.66,3.55-29.57,.11-13.96-.33-25.89-1.31-35.48-1.16-11.38-2.07-17.14-2.64-20.01-.86-2.88-2.2-4.17-3.15-4.89-1.93-1.46-3.25-1.62-4.17-1.6-2.68,.07-5.24,.65-7.8,1.75-.95,.41-1.95,1.04-2.88,2.89-.43,.86-.91,2.35-.12,5.37l.07,.29c5.9,25.09,6.8,48,2.66,68.07-4.52,21.93-13.67,37.01-27.17,44.81l-12.89,7.45-5.1-13.99c-2-5.47-3.7-11.16-5.07-16.88-1.38-5.74-2.45-12.12-3.2-18.94-.7-6.38-1.23-11.69-1.58-15.79-.36-4.23-.71-10.2-1.07-18.26-.42-9.4-.68-13.78-.84-15.79-.29-3.89-1.69-5.63-2.87-6.71-2.66-2.44-4.8-2.85-6.18-2.94-1.32-.09-3.39,.03-6.28,2.13-1.21,.88-2.67,2.38-3.23,6.28l-.09,.54c-.43,2.32-1.39,8.97-3.48,27.52-1.79,15.88-4.25,29.32-7.3,39.94-3.41,11.85-8.83,21.84-16.12,29.68l-11.15,12.01-8.63-13.93c-3.7-5.97-6.77-13.87-9.41-24.15-2.4-9.36-4.23-18.52-5.44-27.22l-3.79-27.2c-1.31-9.37-2.42-16.49-3.29-21.18-3.97-16.85-7.61-23.57-9.43-26.08-.68-.94-2.76-.86-6.17,.25l-.33,.1c-2.86,.84-4.38,1.76-5.15,2.38-1.19,.96-1.77,1.62-2,1.92-.08,.33-.21,1.07-.25,2.37-.11,3.32,.05,5.28,.21,6.34,.34,2.28,.85,5.78,1.53,10.51,.72,3.89,2.26,13.12,4.82,28.96,2.5,15.48,4.51,27.25,5.97,34.98,1.37,7.3,3.94,16.37,7.62,26.98,3.43,9.9,7.32,17.87,11.55,23.7Zm-31.4-134.06h0Z"/>
    <path class="cls-2" d="M496.16,307.3c-21.39,0-39.5-5.4-54.14-16.19-18.52-13.22-27.56-32.23-26.15-54.98l.02-.23c1.9-23.69,14.52-44.15,37.51-60.79l.11-.08c11.6-8.2,25.25-14.7,40.7-19.38-.42-.73-.68-.95-.94-1.04-10.55-.66-19.48,.59-26.52,3.71-6.85,3.36-13.86,4.53-20.83,3.45-7.32-1.13-13.48-4.34-18.3-9.55-3.99-4.3-7-9.2-8.94-14.55-2.27-6.24-2.49-12.84-.66-19.59,1.87-6.94,5.93-12.83,12.05-17.51l.19-.15c17.23-12.66,42.21-17.27,74.22-13.72l.48,.06c11.26,1.69,21.37,5.93,30.05,12.62,8.53,6.58,15.26,14.93,20.01,24.82,4.26,8.9,7.56,18.06,9.82,27.21,2.22,9.02,3.72,18.58,4.46,28.41l.02,.33c.46,9.58,1.05,36.25,1.73,79.28v.2c0,4.32-.13,7.76-.4,10.52-.36,3.54-1.35,7.28-2.97,11.15-2.12,5.08-5.64,9.28-10.47,12.49-3.8,2.54-8.5,4.63-14.36,6.39l-.25,.07c-16.86,4.69-32.36,7.03-46.44,7.03Zm-55.34-69.5c-.85,14.25,4.17,24.74,15.79,33.02l.18,.13c17.75,13.12,44.32,14.89,78.99,5.28,4.15-1.26,6.4-2.44,7.55-3.21,.99-.66,1.18-1.12,1.26-1.31,.83-1.99,1.09-3.28,1.16-4.02,.12-1.27,.28-3.71,.28-7.94-.68-42.44-1.25-68.75-1.7-78.2-.64-8.39-1.91-16.51-3.79-24.13-1.85-7.5-4.57-15.04-8.09-22.4-3.08-6.42-7.24-11.59-12.72-15.82-5.29-4.07-11.27-6.58-18.28-7.66-25.38-2.78-44.33,.23-56.31,8.97-2.16,1.68-2.75,3.15-3.01,4.11-.61,2.27-.31,3.61,.02,4.52,.81,2.23,2.05,4.23,3.79,6.11,.67,.72,1.63,1.5,3.76,1.83,1.19,.18,3.13,.25,6.12-1.24l.46-.22c11.03-4.97,24.29-6.95,39.41-5.89l.98,.11c8.55,1.28,15.35,6.19,19.66,14.19,3.3,6.12,5.13,12.86,5.44,20.02l.46,10.41-10.15,2.32c-17.35,3.97-32.18,10.25-44.08,18.65-16.95,12.29-25.84,26.16-27.18,42.39Zm50.34,29.94c-4.04,0-7.93-.51-11.66-1.54-7.84-2.08-13.37-6.11-16.43-11.97-2.14-4.1-4.01-10.76-.72-19.14,1.66-4.23,3.89-8.23,6.63-11.88,2.46-3.27,5.21-6.32,8.19-9.06,8.76-8.9,20.98-14.67,36.33-17.13l16.23-2.61-1.82,16.33c-.08,.68-.24,2.82-.1,7.92,.11,4.37,.23,8.73,.34,13.09,.13,5.12-.15,9.89-.84,14.2-1.3,8.03-4.87,13.36-10.63,15.86-9.04,3.95-17.58,5.93-25.53,5.93Zm-5.61-23.29h0Zm.98-2.25c4.45,1.11,9.93,.52,16.33-1.77,.29-2.4,.39-5.09,.32-8.01-.06-2.12-.11-4.25-.17-6.37-3.23,1.59-5.95,3.52-8.15,5.79l-.58,.56c-1.92,1.75-3.7,3.71-5.29,5.82-.94,1.25-1.76,2.59-2.46,3.99Z"/>
    <path class="cls-2" d="M600.9,308.3c-13.25,0-22.68-3.89-28.01-11.57-4.4-6.33-6.59-15.18-6.88-27.85v-.14c-.46-40.7-1.38-87.26-2.74-138.39-1.13-10.13,1.08-19.43,6.56-27.64,6.21-9.33,15.46-14.29,26.74-14.34,11.62-.31,21.21,4.63,27.75,14.26,5.61,8.26,8.19,17.59,7.68,27.75,1.61,86.22,2.28,133.42,2.06,144.24-.03,9.34-3.28,17.6-9.39,23.89-6.24,6.42-14.46,9.82-23.78,9.82Zm-7.64-26.1c.56,.29,2.61,1.1,7.64,1.1,3.23,0,4.72-1.08,5.85-2.24,1.08-1.11,2.32-2.87,2.32-6.61v-.27c.22-10.11-.47-58.49-2.07-143.81v-.49s.02-.49,.02-.49c.29-4.85-.78-8.9-3.37-12.72-1.73-2.54-3.45-3.41-6.5-3.31h-.38c-2.94,0-4.55,.85-6.13,3.22-2.24,3.36-3.03,6.95-2.48,11.32l.08,.61,.02,.61c1.37,51.45,2.29,98.3,2.76,139.26,.22,9.32,1.73,12.86,2.25,13.83Z"/>
    <path class="cls-2" d="M664,308.05c-1.86,0-3.71-.13-5.57-.38-7.03-.97-13.24-4.3-18.45-9.88-5.01-5.37-8.08-12.1-9.11-20l-.07-.62c-.93-11.61-1.81-28.54-2.61-50.31-.8-21.45-1.42-35.12-1.86-40.63l-.02-.31c-.58-10.71,1.33-20.4,5.69-28.82,5.47-10.56,15.29-16.23,27.63-16.06,6.08-.25,11.81,1.08,17.05,3.97,5.26,2.91,9.49,6.96,12.57,12.03,3.02,5,4.73,10.65,5.07,16.82,3.02,55.14,4.6,87.27,4.84,98.25v.27c0,8.02-2.05,15.13-6.1,21.12-4.28,6.32-9.95,10.6-16.87,12.71-4.03,1.23-8.11,1.84-12.19,1.84Zm-8.3-33.23c.49,3.35,1.69,4.97,2.56,5.9,1.6,1.71,2.76,2.06,3.6,2.18,2.34,.32,4.64,.12,7.05-.61,.91-.28,2.13-.85,3.45-2.8,1.2-1.78,1.8-4.07,1.81-7-.24-10.7-1.85-43.42-4.8-97.26-.12-2.06-.6-3.77-1.48-5.23-.81-1.33-1.85-2.32-3.28-3.11-1.25-.69-2.51-.96-4.08-.87l-.54,.03-.54-.02c-3.91-.11-4.5,1.12-5.24,2.55-2.29,4.43-3.25,9.6-2.93,15.82,.47,6.03,1.1,19.62,1.91,41.52,.78,21.2,1.63,37.64,2.52,48.89Zm5.39-148.02c-.39,0-.79,0-1.19-.02-9.09-.06-17.25-3.36-23.63-9.57-6.53-6.34-9.98-14.62-9.98-23.94s3.37-17.15,9.74-23.7c6.41-6.59,14.54-10.1,23.54-10.16,9.33-.29,17.76,3.05,24.4,9.68,6.57,6.58,10.04,15.05,10.04,24.52v.48c-.36,9.06-3.83,17.13-10.03,23.34-6.14,6.14-14.02,9.36-22.87,9.36Zm-1.29-42.38c-2.37,0-4.06,.75-5.85,2.59-1.86,1.91-2.66,3.79-2.66,6.27,0,2.61,.7,4.35,2.41,6.02,1.8,1.75,3.73,2.49,6.45,2.49h.48c3.05,.13,4.53-.9,5.66-2.02,1.72-1.72,2.56-3.7,2.71-6.39-.04-2.76-.86-4.74-2.71-6.6-1.78-1.77-3.5-2.47-6.01-2.37h-.47Z"/>
  </g>
  <g>
    <path class="cls-1" d="M96.66,78.46c1.38,51.67,2.18,79.68,2.41,84.04,33.29-27.32,55.8-56.14,67.51-86.45,3.44-8.72,9.47-13.89,18.08-15.5,8.61-1.6,15.73,.52,21.35,6.37,5.62,5.86,6.6,13.38,2.93,22.56-18.14,41.11-47.88,78.99-89.21,113.66,40.18,26.87,68.66,46.15,85.42,57.86,3.67,2.99,5.39,6.84,5.17,11.54-.23,4.71-1.84,9.13-4.82,13.26-2.53,3.91-5.97,6.49-10.33,7.75-4.36,1.26-8.67,1.32-12.92,.17-4.25-1.15-8.33-3.1-12.23-5.86-14.01-9.64-36.63-24.22-67.85-43.74-.23,4.82-.46,10.11-.69,15.84-.23,5.74-.52,11.14-.86,16.19-.34,5.05-2.18,9.36-5.51,12.92-3.33,3.56-8.33,5.57-14.98,6.03-3.91-.23-7.29-.8-10.16-1.72-2.87-.91-5.28-2.01-7.23-3.27-1.95-1.26-3.56-3.15-4.82-5.68-1.26-2.52-2.18-4.76-2.76-6.72-.58-1.95-.98-4.88-1.21-8.78-.23-3.9-.34-7.06-.34-9.47s.05-6.08,.17-11.02c.11-4.94,.17-8.78,.17-11.54,.23-19.51,.23-49.08,0-88.69-.23-39.61-.34-63.09-.34-70.44,0-8.96,4.13-15.38,12.4-19.29,6.89-3.44,13.83-2.93,20.84,1.55,7,4.48,10.27,10.62,9.82,18.43Z"/>
    <path class="cls-1" d="M412.85,137.02c.91,4.36,1.89,11.6,2.93,21.7,1.03,10.11,1.49,22.39,1.38,36.85-.12,14.47-1.55,25.72-4.31,33.75-3.22,8.27-7.46,16.48-12.74,24.63-5.28,8.15-11.48,15.27-18.6,21.35-7.12,6.09-14.41,10.62-21.87,13.61-7.46,2.99-15.1,3.05-22.9,.17-7.81-2.87-14.81-8.9-21.01-18.08-5.28,8.96-12.69,15.56-22.22,19.8-9.53,4.25-19.29,5.39-29.28,3.44-9.99-1.95-18.2-6.94-24.63-14.98-5.05-6.89-9.53-15.96-13.43-27.21-3.91-11.25-6.6-20.84-8.09-28.76-1.5-7.92-3.5-19.69-6.03-35.3-2.53-15.61-4.13-25.26-4.82-28.93-.69-4.82-1.21-8.38-1.55-10.68-.34-2.29-.46-5.17-.34-8.61,.11-3.44,.69-6.08,1.72-7.92,1.03-1.84,2.76-3.73,5.17-5.68,2.41-1.95,5.57-3.5,9.47-4.65,9.18-2.98,15.9-1.55,20.15,4.31,4.25,5.86,8.09,16.13,11.54,30.83,.91,4.82,2.07,12.17,3.44,22.04,1.38,9.88,2.64,18.94,3.79,27.21,1.15,8.27,2.87,16.88,5.17,25.83,2.29,8.96,4.94,15.84,7.92,20.67,5.97-6.43,10.39-14.64,13.26-24.63,2.87-9.99,5.17-22.61,6.89-37.89,1.72-15.27,2.93-24.74,3.62-28.42,.91-6.43,3.67-11.31,8.27-14.64,4.59-3.33,9.41-4.82,14.47-4.48,5.05,.34,9.64,2.41,13.78,6.2s6.43,8.78,6.89,14.98c.23,2.99,.52,8.39,.86,16.19,.34,7.81,.69,13.72,1.03,17.74,.34,4.02,.86,9.19,1.55,15.5,.69,6.32,1.66,12.11,2.93,17.39,1.26,5.29,2.81,10.45,4.65,15.5,10.33-5.97,17.39-18.14,21.18-36.51,3.79-18.37,2.93-39.26-2.58-62.69-1.38-5.28-1.03-9.99,1.03-14.12s5.11-7.06,9.13-8.78c4.01-1.72,8.15-2.64,12.4-2.76,4.25-.11,8.27,1.26,12.06,4.13,3.79,2.87,6.37,6.84,7.75,11.88Z"/>
    <path class="cls-1" d="M558.54,259.64c0,3.91-.12,7.01-.34,9.3-.23,2.3-.92,4.82-2.07,7.58-1.15,2.76-3.1,5.05-5.86,6.89-2.76,1.84-6.43,3.44-11.02,4.82-38.81,10.79-68.77,8.38-89.9-7.23-15.15-10.79-22.16-25.49-21.01-44.09,1.6-19.98,12.4-37.2,32.38-51.67,13.31-9.41,29.5-16.3,48.57-20.67-.23-5.28-1.55-10.16-3.96-14.64-2.41-4.48-5.91-7.06-10.51-7.75-13.09-.91-24.23,.69-33.41,4.82-4.6,2.3-9.13,3.1-13.61,2.41-4.48-.69-8.15-2.58-11.02-5.68-2.87-3.1-4.99-6.54-6.37-10.33s-1.5-7.8-.34-12.05c1.15-4.25,3.67-7.86,7.58-10.85,14.69-10.79,36.51-14.58,65.44-11.37,9.18,1.38,17.28,4.77,24.28,10.16,7,5.4,12.45,12.17,16.36,20.32,3.9,8.15,6.89,16.42,8.96,24.8,2.07,8.38,3.44,17.17,4.13,26.35,.46,9.42,1.03,35.71,1.72,78.88Zm-46.84-9.3c1.6-.69,2.7-2.81,3.27-6.37,.57-3.56,.8-7.52,.69-11.88-.12-4.36-.23-8.72-.34-13.09-.12-4.36-.06-7.58,.17-9.64-12.86,2.07-22.73,6.66-29.62,13.78-2.53,2.3-4.82,4.82-6.89,7.58-2.07,2.76-3.73,5.74-4.99,8.96-1.26,3.22-1.21,6.15,.17,8.78,1.38,2.64,4.25,4.54,8.61,5.68,8.27,2.3,17.91,1.03,28.93-3.79Z"/>
    <path class="cls-1" d="M619.5,130.13c1.6,85.88,2.29,133.98,2.07,144.32,0,6.2-1.95,11.31-5.86,15.33-3.91,4.02-8.84,6.03-14.81,6.03-8.96,0-14.87-2.07-17.74-6.2-2.87-4.13-4.42-11.13-4.65-21.01-.46-40.87-1.38-87.25-2.76-139.15-.92-7.35,.57-13.95,4.48-19.8,3.9-5.86,9.41-8.78,16.53-8.78,7.35-.23,13.09,2.7,17.22,8.78,4.13,6.09,5.97,12.92,5.51,20.49Z"/>
    <path class="cls-1" d="M686.67,272.38c0,5.51-1.32,10.22-3.96,14.12-2.64,3.91-6.03,6.49-10.16,7.75-4.13,1.26-8.27,1.6-12.4,1.03s-7.81-2.58-11.02-6.03c-3.22-3.44-5.17-7.8-5.86-13.09-.92-11.48-1.78-28.07-2.58-49.77-.81-21.7-1.44-35.42-1.89-41.16-.46-8.49,.97-15.96,4.31-22.39,3.33-6.43,8.9-9.53,16.7-9.3,3.9-.23,7.52,.58,10.85,2.41,3.33,1.84,5.97,4.36,7.92,7.58,1.95,3.22,3.04,6.89,3.27,11.02,2.98,54.42,4.59,87.03,4.82,97.82Zm-26.52-158.09c-5.97,0-11.02-2.01-15.15-6.03-4.13-4.02-6.2-9.01-6.2-14.98s2.07-10.73,6.2-14.98c4.13-4.25,9.07-6.37,14.81-6.37,5.97-.23,11.08,1.78,15.33,6.03,4.25,4.25,6.37,9.47,6.37,15.67-.23,5.97-2.36,10.97-6.37,14.98-4.02,4.02-9.01,5.91-14.98,5.68Z"/>
  </g>
</svg>