<?xml version="1.0" encoding="UTF-8"?>
<svg id="Layer_1" data-name="Layer 1" xmlns="http://www.w3.org/2000/svg" xmlns:xlink="http://www.w3.org/1999/xlink" viewBox="0 0 740.9 369.06">
  <defs>
    <style>
      .cls-1 {
        fill: #fff;
      }

      .cls-2 {
        fill: #27a8e0;
      }

      .cls-3 {
        fill: #27265f;
      }

      .cls-4 {
        filter: url(#drop-shadow-1);
      }
    </style>
    <filter id="drop-shadow-1" filterUnits="userSpaceOnUse">
      <feOffset dx="4" dy="3"/>
      <feGaussianBlur result="blur" stdDeviation="3"/>
      <feFlood flood-color="#000" flood-opacity=".5"/>
      <feComposite in2="blur" operator="in"/>
      <feComposite in="SourceGraphic"/>
    </filter>
  </defs>
  <g class="cls-4">
    <g>
      <g>
        <path class="cls-1" d="M80.2,318.64c-.21,0-.43,0-.64-.02l-.79-.05c-5.86-.34-11.23-1.28-15.98-2.81-4.81-1.53-9.14-3.53-12.85-5.94-5.5-3.55-9.9-8.57-13.07-14.92-1.9-3.78-3.3-7.26-4.28-10.6-1.1-3.71-1.77-8.17-2.11-14.01-.25-4.26-.38-7.91-.38-10.83,0-2.76,.06-6.65,.18-11.59,.11-4.88,.17-8.47,.17-10.97v-.22c.22-19.36,.22-49.07,0-88.34-.23-38.46-.34-62.87-.34-70.57,0-17.9,9.34-32.63,25.62-40.42,14.29-7.05,29.83-6.02,43.77,2.88,13.69,8.75,21.21,22.74,20.68,38.44,.29,10.7,.55,20.38,.78,29.04,10.55-13.19,18.49-26.62,23.7-40.12,6.46-16.36,19.12-27.04,35.69-30.13,16.38-3.05,31.51,1.64,42.61,13.19,5.7,5.93,17.86,22.44,7.81,47.57-.02,.06-.05,.12-.07,.18l-.17,.41c-.03,.06-.05,.12-.08,.18-15.91,36.05-40.3,70.12-72.58,101.44,27.32,18.36,47.73,32.24,60.75,41.34,.11,.08,.22,.16,.33,.24l.73,.55c.11,.08,.21,.16,.32,.25,9.35,7.61,14.39,18.87,13.81,30.89-.45,9.13-3.45,17.68-8.91,25.42-5.59,8.38-13.61,14.27-23.2,17.04-8.53,2.47-17.14,2.57-25.59,.28-6.82-1.84-13.38-4.95-19.5-9.25-8.08-5.56-19.34-12.96-33.6-22.08-1.72,7.54-5.31,14.26-10.73,20.05-7.5,8.03-17.78,12.54-30.53,13.42l-.79,.05c-.25,.02-.5,.03-.75,.03Zm-5.14-263.94c-3.2,0-6.4,.8-9.63,2.4-.05,.02-.1,.05-.15,.07-8.74,4.16-13.17,11.1-13.17,20.6,0,7.66,.12,32.02,.34,70.44,.22,39.4,.22,69.23,0,88.67v.09c0,2.6-.06,6.36-.17,11.42-.12,4.77-.17,8.49-.17,11.07s.12,5.69,.35,9.54c.24,4.07,.64,7.04,1.25,9.1,.61,2.1,1.54,4.36,2.85,6.97,1.39,2.79,3.18,4.9,5.33,6.29,2.09,1.35,4.63,2.51,7.59,3.45,3.01,.97,6.55,1.57,10.56,1.8h.1s.09,0,.09,0c7.12-.49,12.34-2.62,15.97-6.5,3.61-3.86,5.54-8.38,5.91-13.84,.23-3.31,.43-6.89,.62-10.65,.19-3.91,2.44-7.42,5.91-9.23,3.47-1.8,7.64-1.63,10.95,.46,21.87,13.82,38.53,24.66,49.52,32.22l.1,.07c4.02,2.83,8.27,4.86,12.63,6.04,4.51,1.22,9.13,1.17,13.73-.17,4.64-1.34,8.36-4.1,11.07-8.2,.07-.1,.14-.2,.21-.3,3.06-4.3,4.73-8.98,4.97-13.9,.24-5.04-1.69-9.42-5.58-12.65l-.39-.29c-14.69-10.26-38.81-26.64-71.72-48.69-2.81-1.88-4.6-4.96-4.85-8.34-.25-3.38,1.07-6.68,3.58-8.95,35.07-31.79,61.11-66.62,77.41-103.52l.09-.22c3.85-9.7,2.75-17.8-3.28-24.07-5.97-6.21-13.61-8.5-22.72-6.8-9.23,1.73-15.52,7.12-19.23,16.51-8.96,23.18-24.69,45.95-46.73,67.58-3.12,3.06-7.76,3.99-11.82,2.35-4.06-1.63-6.76-5.52-6.88-9.89-.39-13.74-.91-32.68-1.55-56.73,0-.25,0-.51,0-.76,.34-8.05-3.3-14.75-10.53-19.37-4.25-2.72-8.42-4.07-12.59-4.07Zm4.97,238.88c-.28,0-.55-.01-.83-.03-3.38-.26-6.25-.78-8.8-1.6-2.61-.83-4.86-1.84-6.68-2.98,0,0-.01,0-.02-.01-1.73-1.08-3.08-2.57-3.96-4.29-.17-.3-.33-.6-.49-.93-1.23-2.45-2.1-4.58-2.66-6.49-.53-1.8-.92-4.65-1.13-8.42-.23-3.79-.34-6.95-.34-9.36s.06-6.29,.17-11c.12-5.03,.17-8.79,.17-11.49,0-.04,0-.08,0-.12,.22-19.43,.22-49.26,0-88.65-.23-38.42-.34-62.77-.34-70.43,0-8.37,3.75-14.23,11.47-17.9l.19-.09c6.35-3.17,12.68-2.69,19.26,1.52,6.57,4.2,9.56,9.79,9.13,17.08v.06s0,.06,0,.06c1.39,52.27,2.18,79.78,2.41,84.09l.16,2.96,2.29-1.88c33.34-27.37,56.2-56.63,67.92-86.99,3.3-8.36,8.85-13.13,16.98-14.65,8.16-1.52,14.7,.42,20,5.93,5.11,5.32,6.02,12.28,2.72,20.71-.06,.15-.12,.29-.18,.44-17.97,40.62-47.82,78.6-88.7,112.89l-1.53,1.28,1.66,1.11c39.64,26.5,68.22,45.86,84.95,57.53,.38,.27,.75,.56,1.09,.87,2.77,2.51,4.08,5.77,3.88,9.68-.22,4.4-1.67,8.44-4.45,12.33l-.22,.33c-2.34,3.55-5.42,5.83-9.41,6.99-4.13,1.2-8.09,1.25-12.12,.16-4.1-1.1-7.94-2.95-11.74-5.63l-.05-.04c-13.89-9.56-36.73-24.29-67.87-43.75l-2.17-1.36-.12,2.56c-.25,5.13-.48,10.46-.69,15.84-.23,5.78-.52,11.22-.86,16.16-.32,4.67-2.04,8.7-5.11,11.99-2.87,3.07-7.21,4.91-12.91,5.47-.36,.03-.71,.05-1.07,.05Zm-1.12-19.69s0,0,0,0c0,0,0,0,0,0Zm-1.46-36.85c0,2.86-.06,6.77-.18,11.94-.11,4.55-.17,8.17-.17,10.48,0,1.98,.1,4.7,.3,8.08,.03,.59,.07,1.1,.11,1.55,.18-3.2,.34-6.56,.48-10.05,.21-5.44,.45-10.83,.7-16.02l1.02-21.31c.19-3.9,2.43-7.41,5.89-9.22,1.51-.79,3.16-1.21,4.81-1.25-1.45-1.78-2.33-4-2.46-6.35-.12-2.17,.41-4.3,1.48-6.14-1.99,.28-4.06,.02-5.98-.83-2.74-1.21-4.82-3.45-5.85-6.16,.02,18.6-.03,33.75-.16,45.3Z"/>
        <path class="cls-1" d="M273.6,318.67c-4.59,0-9.26-.46-13.87-1.36-15.56-3.03-28.51-10.9-38.48-23.38-.05-.06-.1-.12-.15-.19l-.31-.41c-.04-.06-.09-.12-.13-.18-6.42-8.75-12.04-20-16.69-33.41-4.26-12.27-7.29-23.08-8.99-32.12-1.54-8.13-3.54-19.88-6.13-35.9-2.5-15.45-4.09-25-4.72-28.36-.01-.08-.03-.16-.04-.23l-.09-.53c-.01-.08-.02-.16-.04-.23-.68-4.76-1.19-8.26-1.53-10.53-.57-3.75-.76-7.97-.59-12.89,.24-7.3,1.78-13.4,4.72-18.63,2.53-4.49,6.08-8.56,10.86-12.43,4.76-3.85,10.58-6.82,17.31-8.84,26.9-8.58,41.21,6.19,46.12,12.95,6.12,8.44,10.94,20.58,15.14,38.15,2.87-9.17,8.29-16.81,15.95-22.36,9.16-6.64,19.21-9.63,29.86-8.9,9.55,.65,18.24,4.15,25.86,10.42,.7-2.49,1.65-4.92,2.84-7.3,4.55-9.1,11.78-15.97,20.89-19.88,6.71-2.88,13.78-4.44,21-4.65,9.7-.27,18.76,2.73,26.89,8.89,8.01,6.08,13.47,14.29,16.24,24.43,.03,.11,.06,.21,.08,.32l.18,.73c.03,.11,.05,.21,.07,.32,1.1,5.25,2.18,13.15,3.3,24.13,1.11,10.89,1.62,24.16,1.5,39.43-.14,17.19-1.96,30.66-5.58,41.19-.02,.07-.05,.14-.07,.2l-.18,.48c-.03,.07-.05,.15-.08,.22-3.79,9.73-8.81,19.45-14.92,28.88-6.49,10.02-14.25,18.91-23.05,26.44-9.04,7.73-18.61,13.64-28.42,17.56-12.98,5.2-26.36,5.33-39.75,.4-4.31-1.58-8.46-3.72-12.41-6.4-4.05,2.92-8.44,5.44-13.13,7.53-9.52,4.25-19.44,6.4-29.47,6.4Zm-35.1-38.38c6.62,8.24,15.18,13.43,25.44,15.43,10.25,2,20.42,.81,30.17-3.54,5.42-2.42,10.24-5.62,14.32-9.53,4.19-4.01,10.78-4.07,15.05-.14,3.97,3.65,8.25,6.34,12.71,7.98,8.25,3.04,16.09,2.98,23.98-.18,7.58-3.03,15.08-7.69,22.29-13.86,7.19-6.15,13.54-13.44,18.88-21.68,5.28-8.15,9.6-16.49,12.84-24.79l.1-.26c2.81-8.25,4.23-19.41,4.35-34.14,.11-14.47-.35-26.92-1.39-37.01-1.02-9.95-2-17.25-2.92-21.7l-.09-.39c-1.49-5.35-4.19-9.46-8.26-12.54-4.1-3.1-8.37-4.57-13-4.43-4.42,.12-8.78,1.09-12.93,2.87-4.28,1.83-7.7,5.12-9.89,9.5-2.24,4.48-2.62,9.4-1.17,15.05,.02,.07,.04,.15,.05,.22,5.41,23.04,6.26,43.87,2.54,61.9-.99,4.81-2.22,9.23-3.64,13.12-1.72,4.71-6.42,7.66-11.41,7.17-4.99-.49-9.02-4.3-9.79-9.25-.37-2.34-.69-4.8-.96-7.28-.68-6.25-1.2-11.45-1.55-15.46-.34-3.98-.69-9.92-1.03-17.68-.34-7.7-.63-13.16-.86-16.22-.49-6.58-2.97-11.96-7.37-15.99-4.43-4.06-9.24-6.22-14.69-6.59-5.46-.38-10.51,1.18-15.45,4.76-4.86,3.53-7.84,8.72-8.84,15.44-.02,.11-.04,.23-.06,.34-.7,3.86-1.91,13.39-3.59,28.32-1.48,13.09-3.41,24.38-5.74,33.56-1.25,4.94-5.71,8.4-10.83,8.29-5.1-.08-9.47-3.65-10.57-8.63-1.3-5.9-2.35-11.71-3.12-17.25l-3.79-27.21c-1.35-9.7-2.51-17.1-3.43-22l-.06-.29c-3.47-14.76-7.43-25.28-11.76-31.26-4.7-6.47-11.79-8.06-21.69-4.89-.07,.02-.15,.05-.22,.07-4.01,1.2-7.33,2.84-9.87,4.89-2.57,2.08-4.38,4.09-5.52,6.11-1.16,2.07-1.79,4.88-1.91,8.58-.12,3.58,0,6.48,.36,8.9,.34,2.29,.85,5.8,1.53,10.56l.05,.3c.68,3.67,2.25,13.09,4.79,28.77,2.56,15.83,4.53,27.39,6.03,35.34,1.5,7.98,4.24,17.72,8.15,28.98,3.92,11.3,8.49,20.55,13.58,27.53l.17,.22Zm35.05,13.37c-3,0-6.01-.29-9.04-.89-9.48-1.85-17.4-6.62-23.53-14.19-.12-.15-.25-.31-.36-.47-4.86-6.71-9.25-15.64-13.04-26.56-3.86-11.11-6.56-20.72-8.04-28.55-1.48-7.81-3.5-19.68-6.02-35.26-2.56-15.78-4.08-24.91-4.78-28.72-.03-.15-.05-.3-.07-.44-.67-4.7-1.18-8.17-1.52-10.44-.33-2.19-.44-5.01-.33-8.35,.06-1.7,.24-3.22,.53-4.49,.07-.32,.16-.63,.26-.93,.64-2.09,1.89-3.91,3.53-5.27,.6-.58,1.27-1.17,2-1.77,2.24-1.81,5.23-3.28,8.89-4.36l.2-.06c5.8-1.87,13.67-2.71,18.38,3.77,4.09,5.64,7.87,15.74,11.24,30.02,.04,.17,.07,.33,.11,.5,.91,4.86,2.05,12.16,3.38,21.69l3.79,27.2c1.15,8.29,2.9,17.03,5.2,26,2.35,9.19,5,16.08,8.1,21.09l1.04,1.67,1.34-1.44c6.1-6.57,10.67-15.06,13.6-25.24,2.88-10.02,5.21-22.85,6.94-38.13,1.69-14.98,2.89-24.46,3.58-28.18l.05-.33c.87-5.91,3.44-10.46,7.64-13.5,4.3-3.11,8.84-4.53,13.51-4.2,4.65,.32,8.98,2.27,12.84,5.81,3.87,3.55,5.97,8.13,6.41,14,.23,3.01,.52,8.59,.86,16.13,.35,7.89,.69,13.71,1.04,17.8,.34,3.99,.86,9.21,1.55,15.53,.69,6.36,1.69,12.27,2.96,17.57,1.27,5.33,2.85,10.6,4.7,15.68l.61,1.68,1.55-.89c10.67-6.16,18.04-18.78,21.9-37.51,3.81-18.48,2.95-39.77-2.58-63.26l-.04-.17c-1.28-4.93-.97-9.19,.94-13,1.92-3.84,4.66-6.49,8.38-8.08,3.86-1.66,7.73-2.52,11.83-2.63,3.88-.11,7.62,1.17,11.11,3.82,3.37,2.56,5.74,6.1,7.06,10.52,.1,.32,.18,.65,.24,.97,.88,4.38,1.82,11.46,2.8,21.05,1.02,9.98,1.48,22.32,1.37,36.69-.12,14.27-1.46,25.06-4.12,32.98-.06,.17-.12,.35-.19,.52-3.16,8.06-7.37,16.16-12.5,24.08-5.18,8-11.34,15.07-18.31,21.03-6.97,5.96-14.19,10.45-21.46,13.35-7.17,2.87-14.32,2.92-21.83,.15-7.46-2.74-14.28-8.63-20.27-17.51l-1.33-1.97-1.21,2.05c-5.1,8.64-12.35,15.1-21.54,19.2-6.31,2.81-12.78,4.23-19.34,4.23Zm41.46-57.06c3.65,0,7.07,1.81,9.12,4.85l2.99,4.43c-1.02-3.32-1.94-6.69-2.74-10.08-1.48-6.19-2.64-13.02-3.43-20.3-.71-6.49-1.25-11.88-1.6-16.04-.35-4.04-.68-9.55-1.01-16.79-.33,2.81-.71,6.07-1.13,9.84-1.86,16.49-4.44,30.54-7.65,41.74-.47,1.65-.98,3.27-1.53,4.85,1.85-1.53,4.19-2.43,6.66-2.5,.11,0,.22,0,.33,0Zm2.34-71.87h0Zm3.49-.52h0Z"/>
        <path class="cls-1" d="M496.16,318.3c-23.72,0-44.11-6.15-60.6-18.28-21.41-15.32-32.29-38.24-30.66-64.56,0-.04,0-.08,0-.12l.02-.23c1.97-24.5,13.69-45.76,34.88-63.36-7.92-2.02-14.72-6.06-20.26-12.05-4.99-5.38-8.76-11.52-11.21-18.26-3.06-8.41-3.38-17.24-.94-26.23,2.52-9.32,7.9-17.19,15.99-23.38,.03-.02,.05-.04,.08-.06l.19-.15s.06-.04,.09-.07c19.53-14.34,47.09-19.65,81.95-15.78,.07,0,.15,.02,.22,.03l.48,.06c.07,0,.13,.02,.2,.03,13.13,1.97,24.95,6.94,35.13,14.78,9.91,7.64,17.72,17.33,23.22,28.78,4.59,9.59,8.14,19.45,10.58,29.33,2.37,9.61,3.97,19.78,4.75,30.22,0,.05,0,.09,0,.14l.02,.33s0,.1,0,.15c.47,9.71,1.06,36.51,1.75,79.64v.27s0,.07,0,.11c0,4.69-.15,8.48-.46,11.6-.47,4.63-1.73,9.43-3.76,14.3-2.98,7.13-7.86,12.98-14.52,17.42-4.72,3.15-10.38,5.7-17.29,7.77-.04,.01-.07,.02-.11,.03l-.25,.07s-.07,.02-.11,.03c-17.74,4.93-34.35,7.43-49.39,7.43Zm-69.31-81.44c-1.17,19.01,6.09,34.25,21.56,45.3,.04,.03,.09,.06,.13,.1,12.64,9.32,28.67,14.04,47.62,14.04,13.03,0,27.65-2.23,43.44-6.61l.14-.04c4.77-1.43,8.48-3.07,11.36-4.99,3.04-2.02,5.14-4.5,6.43-7.58,1.19-2.86,1.92-5.57,2.17-8.02,.23-2.36,.35-5.43,.35-9.37v-.14c-.68-42.71-1.26-69.24-1.72-78.78v-.18c-.71-9.2-2.11-18.12-4.18-26.53-2.08-8.43-5.13-16.87-9.06-25.1-3.99-8.32-9.64-15.34-16.8-20.86-7.15-5.5-15.52-9.02-24.87-10.44l-.26-.03c-29.11-3.22-51.43,.7-66.35,11.63l-.1,.08c-4.19,3.22-6.83,7.01-8.07,11.61-1.25,4.6-1.12,8.84,.38,12.97,1.44,3.97,3.69,7.61,6.67,10.83,3.14,3.39,7.03,5.4,11.9,6.15,4.78,.73,9.45-.07,14.31-2.46,.13-.06,.26-.13,.39-.18,8.68-3.84,19.33-5.4,31.67-4.63,.96,.06,1.91,.25,2.83,.55,2.92,.99,5.28,3.01,6.99,6.02,1.65,2.91,1.89,6.41,.66,9.51s-3.82,5.48-7.02,6.45c-14.3,4.34-26.93,10.34-37.54,17.84l-.05,.04c-20.22,14.64-31.32,32.4-32.96,52.73v.07Zm69.36,56.44c-18.41,0-33.79-4.51-45.97-13.51l-.05-.04c-14.79-10.54-21.45-24.48-20.36-42.61,0-.08,.01-.17,.02-.25,1.62-19.62,11.98-36.1,31.69-50.39,.04-.03,.08-.05,.11-.08,13.08-9.23,29.22-16.09,47.97-20.38l1.22-.28-.05-1.25c-.24-5.49-1.63-10.63-4.14-15.28-2.64-4.9-6.38-7.68-11.41-8.49l-.52-.06c-13.15-.89-24.53,.76-33.82,4.92l-.26,.13c-4.32,2.13-8.44,2.86-12.6,2.21-4.17-.64-7.49-2.35-10.15-5.23-2.75-2.96-4.73-6.18-6.05-9.82-1.28-3.53-1.38-7.18-.3-11.16,1.03-3.83,3.35-7.17,6.88-9.92,.09-.07,.18-.14,.27-.2,14.26-10.4,35.79-14.1,63.99-11.01,.16,.02,.32,.04,.49,.06,8.89,1.38,16.51,4.59,23.3,9.82,6.88,5.31,12.09,11.77,15.93,19.78,3.85,8.04,6.83,16.29,8.86,24.52,2.02,8.21,3.4,16.93,4.08,25.93,0,.1,.01,.21,.02,.31,.46,9.58,1.03,36.01,1.71,78.55,0,.06,0,.12,0,.18,0,3.75-.11,6.78-.33,9.01-.22,2.17-.88,4.57-1.95,7.16-1.07,2.54-2.8,4.57-5.33,6.25-2.56,1.71-6.09,3.26-10.47,4.58-.08,.02-.16,.05-.24,.07-15.58,4.32-29.77,6.48-42.5,6.48Zm38.8-35.1c-1.68,3.55-3.79,6.31-6.02,8.45,1.23-.31,2.47-.65,3.72-.99,.89-.27,1.62-.52,2.22-.75,.06-1.12,.11-2.77,.11-5.08,0-.54-.02-1.09-.03-1.62Zm-17.82-50.64l-1.95,.31c-12.98,2.09-23.16,6.79-30.24,13.99-.13,.13-.26,.26-.39,.38-2.49,2.28-4.79,4.83-6.84,7.57-2.15,2.86-3.89,5.99-5.19,9.29-1.45,3.69-1.37,6.96,.23,10.03,.59,1.13,2.37,4.54,9.5,6.43,.04,0,.07,.02,.1,.03,8.55,2.36,18.64,1.04,29.85-3.87,.81-.35,3.18-1.38,4.18-7.53,.58-3.63,.82-7.72,.7-12.16-.09-3.45-.18-6.92-.27-10.39l-.07-2.7c-.12-4.25-.06-7.43,.16-9.43l.22-1.96Zm12.54-24.16c1.27,0,2.53,.22,3.71,.64-.03-.67-.05-1.28-.08-1.83-.13-1.69-.29-3.38-.47-5.04-.66,2.56-2.22,4.8-4.38,6.3,.41-.05,.82-.07,1.22-.07Zm-44.17,72.04c-6.07,0-11-4.92-11-11,0-1.97,.52-3.83,1.43-5.43,.18-.58,.4-1.16,.68-1.71,.99-2,2.17-3.91,3.51-5.7,1.96-2.62,4.17-5.06,6.56-7.24l.34-.33c3.04-3.11,6.76-5.75,11.05-7.87,3.36-1.65,7.34-1.48,10.55,.45,3.21,1.94,5.21,5.38,5.31,9.12l.17,6.37c.09,3.45-.04,6.68-.39,9.61-.49,4.14-3.28,7.65-7.21,9.06-5.39,1.93-10.44,2.92-15.1,2.96-1.7,1.08-3.73,1.71-5.9,1.71Z"/>
        <path class="cls-1" d="M600.9,319.3c-21.27,0-31.88-8.86-37.04-16.3-5.69-8.18-8.5-18.94-8.84-33.87,0-.03,0-.07,0-.1v-.14c-.46-40.55-1.38-86.9-2.72-137.81-1.3-12.59,1.52-24.19,8.4-34.48,8.19-12.3,20.88-19.13,35.71-19.24,15.27-.39,28.41,6.4,37.02,19.07,6.91,10.17,10.13,21.64,9.59,34.08,1.6,85.93,2.27,133.11,2.05,144.22-.07,12.21-4.39,23.07-12.5,31.42-8.36,8.6-19.31,13.15-31.67,13.15Zm-23.89-50.63c.24,10.25,1.85,17.37,4.91,21.78,3.16,4.55,9.54,6.85,18.98,6.85,6.36,0,11.71-2.18,15.89-6.48,4.14-4.26,6.25-9.74,6.28-16.26,0-.06,0-.12,0-.19,.22-10.66-.45-57.7-2.06-143.8,0-.25,0-.5,.01-.76,.39-7.82-1.5-14.7-5.79-21.02-4.46-6.56-10.46-9.65-18.36-9.44-.08,0-.16,0-.24,0-7.66,.04-13.43,3.13-17.64,9.44-4.07,6.09-5.63,12.74-4.78,20.33,.03,.31,.06,.62,.06,.93,1.36,51.19,2.28,97.81,2.74,138.56v.06Zm23.89,25.63c-5.37,0-9.62-.77-12.62-2.29-1.98-1-3.6-2.58-4.67-4.53-2.19-4-3.4-10.34-3.6-18.85,0-.04,0-.09,0-.13-.46-40.87-1.39-87.67-2.76-139.1v-.15c-.88-6.95,.55-13.27,4.23-18.79,3.62-5.43,8.59-8.08,15.18-8.11h.23c6.79-.19,11.99,2.46,15.84,8.12,3.98,5.86,5.7,12.26,5.26,19.57v.06s0,.07,0,.07c1.59,85.29,2.29,133.8,2.07,144.18v.17c-.02,5.74-1.84,10.52-5.43,14.21-3.64,3.75-8.14,5.57-13.74,5.57Z"/>
        <path class="cls-1" d="M664,319.05c-2.35,0-4.73-.16-7.07-.49-9.6-1.33-18.01-5.79-24.99-13.27-6.61-7.08-10.64-15.86-11.98-26.08-.01-.09-.02-.18-.03-.26l-.07-.62c0-.09-.02-.19-.03-.28-.94-11.77-1.83-28.86-2.64-50.78-.79-21.31-1.41-34.83-1.84-40.16,0-.05,0-.1-.01-.15l-.02-.31s0-.08,0-.12c-.69-12.7,1.63-24.3,6.9-34.48,4.35-8.4,10.91-14.63,18.96-18.28-4.59-2.1-8.82-5-12.58-8.66-8.71-8.46-13.31-19.47-13.31-31.83s4.44-22.72,12.85-31.37c8.48-8.71,19.27-13.37,31.22-13.49,12.4-.35,23.58,4.11,32.38,12.9,8.68,8.69,13.26,19.86,13.26,32.3,0,.07,0,.15,0,.22v.48c-.01,.07-.01,.14-.02,.2-.46,11.88-5.04,22.49-13.24,30.69-3.73,3.73-7.94,6.66-12.53,8.75,.94,.43,1.86,.9,2.78,1.41,6.97,3.86,12.57,9.22,16.66,15.95,3.97,6.56,6.21,13.93,6.65,21.92,3.03,55.29,4.62,87.55,4.85,98.63,0,.04,0,.08,0,.12v.27s0,.08,0,.12c0,10.26-2.69,19.43-7.99,27.28-5.73,8.47-13.39,14.21-22.78,17.07-5.06,1.54-10.23,2.32-15.39,2.32Zm-22.21-42.56c.75,5.6,2.79,10.11,6.23,13.79,3.5,3.75,7.39,5.87,11.92,6.5,4.32,.59,8.72,.23,13.04-1.09,4.51-1.37,8.1-4.11,10.97-8.35,2.79-4.12,4.21-9.14,4.21-14.9v-.14c-.24-10.89-1.82-42.9-4.83-97.83-.24-4.34-1.42-8.29-3.5-11.72-2.07-3.4-4.93-6.13-8.49-8.1-3.48-1.92-7.18-2.77-11.27-2.6-.2,0-.41,0-.61,0-.13,0-.27,0-.4,0-8.01,0-13.84,3.4-17.32,10.12-3.43,6.63-4.94,14.4-4.47,23.1v.17c.47,5.77,1.08,19.18,1.9,41.02,.79,21.52,1.66,38.24,2.58,49.7l.04,.34Zm18.88-206.08c-.26,0-.51,0-.77,.01-.09,0-.18,0-.27,0-6.07,.04-11.36,2.34-15.73,6.83-4.39,4.52-6.62,9.91-6.62,16.02s2.24,11.77,6.65,16.05c4.37,4.25,9.76,6.42,16.04,6.46,.1,0,.2,0,.29,0,6.31,.21,11.66-1.86,15.92-6.13,4.25-4.25,6.54-9.6,6.81-15.89v-.25c-.02-6.53-2.31-12.13-6.82-16.64-4.3-4.29-9.51-6.47-15.5-6.47Zm3.31,223.65c-1.21,0-2.43-.08-3.64-.25-3.82-.53-7.13-2.35-10.14-5.57-2.93-3.14-4.7-7.01-5.4-11.83-.03-.24-.06-.47-.08-.71-.9-11.41-1.76-28.01-2.55-49.35-.81-21.76-1.43-35.2-1.89-41.06,0-.1-.01-.19-.02-.29-.42-8.22,.93-15.24,4.15-21.45,3.06-5.92,8.04-8.68,15.31-8.49h.08s.07,0,.07,0c3.64-.21,6.92,.51,10.02,2.22,3.1,1.72,5.57,4.08,7.37,7.03,1.82,3.01,2.85,6.48,3.07,10.33,2.96,53.97,4.58,86.82,4.82,97.63,0,.1,0,.21,0,.31-.03,5.1-1.27,9.5-3.7,13.09-2.44,3.6-5.58,6.01-9.36,7.16-2.69,.82-5.41,1.23-8.12,1.23Zm-2.89-181.25c-.26,0-.52,0-.78-.01h-.3c-5.56-.03-10.14-1.87-13.99-5.61-3.86-3.75-5.74-8.3-5.74-13.9s1.89-9.94,5.77-13.93c3.85-3.96,8.31-5.89,13.62-5.92h.29c5.53-.19,10.14,1.64,14.08,5.58,3.91,3.91,5.85,8.55,5.94,14.2,0,.26,0,.52-.01,.78-.29,5.37-2.29,9.93-5.92,13.56-3.49,3.49-7.85,5.26-12.97,5.26Zm-3.08-19.25c.08,.34,.31,.8,.5,1.02,.35,.32,1.13,.66,1.77,.78,.53-.12,1.15-.38,1.52-.67,.21-.3,.4-.81,.46-1.2l-4.25,.07Zm.03-.78l4.17,.23c-.15-.57-.52-1.27-.86-1.6-.19-.18-.55-.37-.89-.49-.65,.18-1.47,.59-1.97,1.08-.16,.16-.36,.51-.46,.79Zm-.06,.2h0Z"/>
      </g>
      <g>
        <path class="cls-1" d="M80.13,306.11c-.21,0-.42,0-.64-.02-4.81-.28-9.14-1.03-12.89-2.23-3.76-1.2-7.09-2.72-9.86-4.52-3.6-2.32-6.54-5.7-8.68-10.01-1.57-3.12-2.71-5.93-3.47-8.54-.83-2.79-1.35-6.37-1.63-11.23-.24-4.04-.36-7.44-.36-10.11s.06-6.43,.17-11.29c.11-4.97,.17-8.66,.17-11.27,0-.04,0-.08,0-.13,.22-19.36,.22-49.14,0-88.5-.23-38.45-.34-62.83-.34-70.5,0-13.11,6.6-23.47,18.59-29.18,10.38-5.14,21.29-4.39,31.57,2.18,10.28,6.57,15.42,16.19,14.9,27.83,.7,26.12,1.25,46.21,1.65,60.17,22.39-21.43,38.16-43.79,47-66.68,4.87-12.34,13.96-20.04,26.32-22.35,12.27-2.29,23.1,1.02,31.3,9.56,4.99,5.19,12.3,16.55,5.21,34.27-.05,.12-.1,.24-.15,.36-17.08,38.71-44.36,75.01-81.19,108.09,33.9,22.71,58.64,39.5,73.63,49.98,.22,.15,.43,.32,.64,.49,6.42,5.23,9.61,12.35,9.21,20.6-.33,6.77-2.6,13.14-6.73,18.95-3.94,5.96-9.59,10.15-16.36,12.1-6.31,1.83-12.65,1.9-18.85,.22-5.44-1.47-10.7-3.97-15.64-7.45-11.28-7.76-28.53-18.97-51.39-33.39-.21,4.75-.46,9.25-.75,13.41-.52,7.61-3.36,14.24-8.45,19.68-5.28,5.64-12.77,8.84-22.26,9.49-.25,.02-.5,.03-.75,.03Zm-15.18-69.14c0,2.78-.06,6.61-.18,11.72-.11,4.63-.17,8.35-.17,10.77,0,2.23,.11,5.19,.33,8.82,.25,4.27,.65,5.91,.77,6.32,.27,.94,.84,2.51,2.04,4.91,.55,1.1,.93,1.36,.95,1.37,.8,.52,2.22,1.27,4.61,2.04,1.84,.59,4.1,.98,6.74,1.18,2.48-.23,5.49-.87,7.03-2.51,1.61-1.72,2.4-3.61,2.57-6.15,.33-4.85,.62-10.2,.84-15.88,.21-5.41,.45-10.77,.69-15.93,.19-3.9,2.43-7.41,5.89-9.22,3.46-1.81,7.62-1.65,10.93,.42,31.26,19.54,54.22,34.35,68.26,44.01,.04,.02,.07,.05,.11,.08,2.87,2.03,5.73,3.41,8.74,4.22,2.3,.62,4.58,.58,6.99-.12,1.82-.53,3.07-1.47,4.16-3.16,.1-.16,.2-.31,.31-.46,1.73-2.4,2.63-4.81,2.76-7.37,.05-1.09-.12-1.59-.88-2.26-16.65-11.62-45.18-30.95-84.83-57.46-2.88-1.92-4.68-5.09-4.87-8.55-.19-3.46,1.26-6.8,3.91-9.02,39.77-33.36,68.75-70.2,86.13-109.49,2.77-7.06,.51-9.42-.71-10.69-2.14-2.22-5.16-4.34-11.41-3.18-4.86,.91-7.81,3.52-9.87,8.73-12.32,31.88-36.14,62.5-70.76,90.92-3.21,2.63-7.62,3.24-11.42,1.56-3.8-1.67-6.33-5.34-6.55-9.48-.24-4.48-1.01-31.28-2.42-84.33,0-.31,0-.62,.01-.94,.19-3.17-.55-5.83-4.76-8.52-4.61-2.94-7.53-2.21-9.99-.98-.07,.04-.15,.07-.22,.11-4.45,2.1-6.1,4.63-6.1,9.34,0,7.62,.12,31.96,.34,70.37,.22,39.45,.22,69.33,0,88.82Z"/>
        <path class="cls-1" d="M273.59,306.17c-3.8,0-7.63-.37-11.47-1.12-12.58-2.45-23.04-8.81-31.12-18.91-.09-.12-.19-.24-.28-.36-5.68-7.74-10.71-17.88-14.96-30.11-4.06-11.69-6.93-21.9-8.51-30.33-1.5-7.93-3.54-19.91-6.08-35.58-2.56-15.81-4.12-25.19-4.77-28.66-.03-.16-.06-.31-.08-.47-.68-4.79-1.2-8.32-1.54-10.61-.45-3-.6-6.47-.46-10.62,.17-5.26,1.19-9.5,3.13-12.93,1.74-3.09,4.3-5.98,7.83-8.84,3.51-2.84,7.93-5.06,13.14-6.61,18.51-5.95,28.18,2.67,32.3,8.35,5.17,7.12,9.53,18.5,13.35,34.78,.04,.15,.07,.31,.1,.46,.96,5.05,2.15,12.65,3.53,22.57l3.79,27.21c.98,7.09,2.43,14.54,4.32,22.2,.19-.61,.38-1.23,.56-1.86,2.69-9.36,4.89-21.5,6.53-36.08,1.73-15.37,2.94-24.86,3.69-28.97,1.37-9.22,5.75-16.74,12.67-21.75,6.72-4.87,14.01-7.07,21.67-6.55,7.58,.52,14.47,3.57,20.46,9.07,6.24,5.72,9.75,13.22,10.42,22.27,.24,3.16,.54,8.73,.88,16.52,.33,7.62,.67,13.43,1,17.28,.34,3.92,.85,9.05,1.53,15.25,.46,4.22,1.06,8.21,1.79,11.9,2.16-4.53,3.92-10.05,5.26-16.55,3.44-16.68,2.6-36.13-2.49-57.83-2.02-7.86-1.39-15.15,1.87-21.68,3.26-6.51,8.18-11.21,14.64-13.98,5.26-2.26,10.79-3.48,16.42-3.64,6.78-.19,13.19,1.96,19,6.36,5.76,4.37,9.7,10.34,11.72,17.76,.06,.21,.11,.43,.16,.64,1.01,4.82,2.02,12.29,3.1,22.84,1.07,10.44,1.55,23.24,1.43,38.06-.13,15.82-1.73,28-4.9,37.24-.05,.14-.1,.28-.16,.42-3.48,8.94-8.11,17.9-13.76,26.62-5.84,9.01-12.8,16.99-20.68,23.73-8.01,6.84-16.4,12.05-24.94,15.46-10.03,4.01-20.39,4.11-30.79,.28-6.07-2.23-11.73-5.87-16.91-10.89-5.11,5.13-11.14,9.26-18.03,12.33-7.94,3.54-16.1,5.32-24.39,5.32Zm-25.26-33.6c4.76,5.89,10.66,9.45,18,10.88,7.79,1.52,15.22,.64,22.69-2.69,7.46-3.32,13.09-8.34,17.22-15.35,1.92-3.25,5.37-5.29,9.14-5.4,3.75-.11,7.34,1.71,9.45,4.84,4.85,7.19,10.13,11.87,15.69,13.91,5.29,1.95,10.06,1.93,15.03-.06,6.31-2.52,12.64-6.48,18.81-11.75,6.27-5.36,11.83-11.75,16.51-18.98,4.79-7.4,8.71-14.94,11.64-22.42,2.31-6.86,3.53-16.98,3.64-30.07,.11-14.01-.33-26-1.32-35.64-1.18-11.52-2.1-17.33-2.68-20.22-.74-2.55-1.93-4.37-3.7-5.72-2.33-1.76-4.01-1.92-5.12-1.9-2.87,.08-5.61,.69-8.35,1.87-1.61,.69-2.73,1.8-3.63,3.6-.54,1.07-1.14,2.91-.23,6.42,.02,.09,.04,.17,.06,.26,5.85,24.88,6.74,47.57,2.65,67.43-4.43,21.49-13.33,36.23-26.45,43.81-2.81,1.63-6.2,1.92-9.26,.81-3.06-1.11-5.46-3.52-6.58-6.57-1.98-5.42-3.67-11.05-5.02-16.72-1.36-5.68-2.43-12-3.16-18.75-.69-6.37-1.22-11.67-1.57-15.75-.36-4.15-.71-10.27-1.06-18.19-.42-9.42-.69-13.81-.84-15.84-.33-4.46-2.07-6.53-3.35-7.71-2.29-2.1-4.54-3.16-7.09-3.33-1.54-.11-3.98,.03-7.26,2.41-1.45,1.05-3.2,2.83-3.83,7.28-.02,.16-.05,.32-.08,.47-.44,2.34-1.4,9.03-3.5,27.62-1.78,15.8-4.22,29.15-7.25,39.69-3.34,11.63-8.65,21.41-15.77,29.08-2.34,2.51-5.72,3.79-9.12,3.46-3.42-.33-6.48-2.24-8.29-5.16-3.61-5.84-6.63-13.6-9.23-23.73-2.39-9.31-4.21-18.41-5.41-27.05l-3.79-27.2c-1.31-9.42-2.43-16.57-3.31-21.28-3.83-16.27-7.38-23.47-9.68-26.65-.54-.74-1.67-2.31-7.85-.3-.1,.03-.19,.06-.29,.09-2.45,.72-4.41,1.64-5.67,2.65-1.63,1.32-2.25,2.15-2.43,2.42-.08,.23-.31,1.11-.38,2.98-.12,3.43,.06,5.49,.23,6.62,.34,2.28,.85,5.79,1.53,10.53,.71,3.86,2.25,13.08,4.82,28.96,2.5,15.49,4.51,27.27,5.98,35.02,1.39,7.37,3.97,16.52,7.68,27.19,3.49,10.06,7.45,18.17,11.77,24.12Zm-31.61-135.49h0Z"/>
        <path class="cls-1" d="M496.16,305.8c-21.07,0-38.89-5.31-53.27-15.9-18.08-12.91-26.91-31.47-25.53-53.67,0-.07,0-.13,.01-.2,1.87-23.24,14.28-43.32,36.89-59.69,.03-.02,.07-.05,.1-.07,11.89-8.41,25.98-15.01,41.97-19.68-.22-.48-.45-.96-.7-1.43-.84-1.56-1.51-1.9-2.1-2.03-10.9-.7-20.12,.59-27.44,3.84-6.58,3.24-13.29,4.36-19.97,3.33-6.98-1.07-12.84-4.13-17.42-9.08-3.85-4.15-6.76-8.88-8.64-14.04-2.16-5.95-2.37-12.23-.62-18.69,1.78-6.61,5.66-12.24,11.51-16.71,.06-.04,.11-.09,.17-.13,16.92-12.43,41.54-16.95,73.17-13.43,.14,.02,.28,.03,.42,.05,11,1.65,20.88,5.8,29.36,12.32,8.35,6.43,14.93,14.6,19.57,24.28,4.21,8.81,7.48,17.87,9.72,26.92,2.2,8.94,3.69,18.41,4.42,28.16,0,.1,.01,.19,.02,.29,.46,9.56,1.05,36.22,1.73,79.23,0,.06,0,.12,0,.18,0,4.27-.13,7.67-.4,10.38-.34,3.39-1.3,6.99-2.86,10.73-2.01,4.8-5.34,8.77-9.91,11.82-3.68,2.46-8.25,4.49-13.96,6.2-.07,.02-.14,.04-.22,.06-16.73,4.65-32.09,6.97-46.03,6.97Zm-56.85-68.11c-.89,14.82,4.33,25.74,16.42,34.35,.05,.04,.1,.08,.16,.11,18.14,13.41,45.16,15.26,80.3,5.51,4.34-1.31,6.73-2.57,7.97-3.4,1.21-.81,1.61-1.48,1.82-1.98,.9-2.16,1.19-3.61,1.27-4.44,.13-1.31,.29-3.81,.29-8.11-.68-42.5-1.25-68.84-1.7-78.28-.64-8.48-1.93-16.69-3.83-24.4-1.87-7.6-4.63-15.23-8.2-22.68-3.18-6.63-7.49-11.99-13.15-16.36-5.5-4.23-11.72-6.84-19-7.96-25.8-2.83-45.11,.28-57.41,9.26-2.53,1.96-3.24,3.74-3.56,4.92-.56,2.06-.54,3.78,.06,5.43,.88,2.42,2.22,4.59,4.1,6.61,1.18,1.27,2.6,1.98,4.63,2.29,2.19,.34,4.49-.11,7.01-1.38,.13-.07,.27-.13,.4-.19,10.8-4.86,23.82-6.81,38.69-5.77,.29,.02,.58,.05,.87,.09,8.07,1.21,14.48,5.85,18.56,13.41,3.19,5.92,4.96,12.44,5.26,19.37,.23,5.31-3.36,10.02-8.53,11.2-17.54,4.02-32.55,10.37-44.62,18.89-17.34,12.57-26.43,26.8-27.81,43.5Zm51.84,28.55c-3.91,0-7.67-.49-11.26-1.49-7.43-1.97-12.64-5.74-15.5-11.22-2-3.83-3.74-10.05-.66-17.89,1.61-4.1,3.77-7.99,6.43-11.53,2.41-3.21,5.11-6.2,8.04-8.88,8.53-8.68,20.48-14.31,35.53-16.73,3.39-.55,6.84,.53,9.33,2.9,2.49,2.37,3.73,5.77,3.34,9.18-.1,.88-.24,3.12-.11,8.13,.11,4.37,.23,8.73,.34,13.09,.13,5.02-.15,9.7-.82,13.92-1.21,7.49-4.49,12.44-9.75,14.72-8.84,3.87-17.19,5.81-24.93,5.81Zm-6.72-23.09c.3,.11,.67,.23,1.12,.34,.05,.01,.1,.03,.15,.04,5.03,1.4,11.24,.72,18.5-2.02,.38-2.7,.53-5.78,.45-9.14-.08-2.87-.15-5.76-.23-8.64-4.32,1.82-7.88,4.18-10.66,7.05-.16,.17-.33,.33-.51,.49-1.99,1.81-3.84,3.84-5.48,6.03-1.35,1.8-2.47,3.77-3.34,5.84Z"/>
        <path class="cls-1" d="M600.9,306.8c-12.73,0-21.74-3.68-26.77-10.93-4.17-5.99-6.33-14.84-6.61-27.03,0-.04,0-.08,0-.13-.46-40.73-1.38-87.32-2.74-138.48-1.11-9.79,1.02-18.77,6.31-26.71,5.93-8.9,14.75-13.63,25.51-13.68,11.1-.3,20.24,4.41,26.49,13.6,5.43,7.99,7.92,17.03,7.42,26.88,1.61,86.27,2.28,133.47,2.06,144.24-.03,8.95-3.13,16.86-8.97,22.87-5.95,6.13-13.8,9.36-22.7,9.36Zm-8.71-23.48s1.84,1.48,8.71,1.48c3.02,0,5.09-.81,6.92-2.69,1.28-1.31,2.74-3.37,2.74-7.66,0-.08,0-.16,0-.24,.22-10.13-.47-58.53-2.07-143.87,0-.29,0-.58,.02-.87,.31-5.13-.88-9.6-3.63-13.65-2.01-2.96-4.19-4.08-7.78-3.97-.11,0-.23,0-.34,0-3.45,0-5.52,1.09-7.38,3.88-2.45,3.67-3.31,7.59-2.72,12.34,.04,.36,.07,.72,.08,1.07,1.37,51.45,2.29,98.3,2.76,139.25,.25,10.62,2.11,14.1,2.68,14.92h0Z"/>
        <path class="cls-1" d="M664,306.55c-1.79,0-3.58-.12-5.36-.37-6.68-.92-12.59-4.09-17.56-9.42-4.8-5.13-7.73-11.58-8.72-19.17-.02-.18-.04-.36-.06-.54-.93-11.59-1.81-28.49-2.61-50.24-.8-21.47-1.43-35.16-1.87-40.69,0-.09-.01-.18-.02-.27-.57-10.44,1.29-19.87,5.52-28.05,5.2-10.04,14.57-15.42,26.32-15.25,5.81-.25,11.29,1.02,16.31,3.78,5.03,2.78,9.06,6.65,12.01,11.5,2.89,4.78,4.52,10.2,4.86,16.12,3.02,55.12,4.6,87.24,4.84,98.2,0,.08,0,.16,0,.24,0,7.72-1.97,14.54-5.85,20.28-4.08,6.03-9.49,10.11-16.07,12.11-3.88,1.18-7.82,1.78-11.75,1.78Zm-9.79-31.56c.41,2.86,1.38,5.07,2.95,6.76,1.94,2.08,3.49,2.5,4.49,2.64,2.56,.35,5.07,.14,7.69-.66,1.15-.35,2.67-1.05,4.25-3.39,1.38-2.04,2.06-4.61,2.07-7.85-.24-10.7-1.85-43.44-4.81-97.33-.13-2.31-.69-4.25-1.7-5.93-.95-1.56-2.17-2.73-3.84-3.65-1.49-.82-3.05-1.16-4.89-1.05-.32,.02-.64,.02-.96,.01-4.42-.13-5.63,1.45-6.62,3.36-2.42,4.67-3.43,10.11-3.1,16.61,.47,6,1.09,19.57,1.91,41.48,.79,21.25,1.64,37.73,2.53,49Zm6.88-149.68c-.38,0-.77,0-1.16-.02-8.7-.05-16.51-3.21-22.61-9.14-6.23-6.05-9.53-13.96-9.53-22.87s3.22-16.39,9.31-22.65c6.13-6.3,13.9-9.65,22.49-9.7,8.91-.27,16.97,2.91,23.31,9.24,6.28,6.29,9.6,14.4,9.6,23.45,0,.14,0,.28,0,.43-.34,8.8-3.57,16.32-9.59,22.34-5.85,5.85-13.37,8.92-21.82,8.92Zm-.38-42.4c-.16,0-.33,0-.5,0-.14,0-.28,0-.42,0-2.78,0-4.85,.91-6.93,3.04-2.13,2.19-3.08,4.45-3.08,7.31,0,3.02,.86,5.14,2.86,7.09,2.08,2.02,4.39,2.92,7.49,2.92,.14,0,.28,0,.43,0,2.89,.11,4.94-.63,6.78-2.47,2.01-2.01,2.99-4.31,3.15-7.42-.04-3.17-1.02-5.55-3.15-7.69-1.96-1.96-3.97-2.82-6.63-2.82Z"/>
      </g>
    </g>
    <g>
      <g>
        <path class="cls-3" d="M80.2,307.64l-.79-.05c-4.93-.29-9.39-1.06-13.26-2.3-3.89-1.24-7.34-2.82-10.22-4.69-3.83-2.47-6.94-6.04-9.21-10.6-1.61-3.2-2.78-6.09-3.56-8.78-.86-2.9-1.4-6.59-1.69-11.56-.24-4.06-.37-7.5-.37-10.19s.06-6.45,.18-11.32c.11-4.96,.17-8.64,.17-11.24v-.14c.22-19.35,.22-49.12,0-88.48-.23-38.46-.34-62.84-.34-70.51,0-13.72,6.9-24.56,19.43-30.53,10.87-5.39,22.29-4.61,33.03,2.26,10.58,6.77,16.11,17.09,15.59,29.1,.64,24.05,1.16,42.98,1.55,56.71,20.94-20.55,35.76-41.93,44.2-63.77,5.07-12.85,14.55-20.87,27.45-23.28,12.8-2.38,24.08,1.08,32.66,10,5.24,5.46,12.92,17.36,5.52,35.86l-.17,.41c-16.95,38.4-43.87,74.44-80.12,107.31,33.09,22.18,57.29,38.61,72.06,48.92l.73,.55c6.71,5.46,10.18,13.21,9.76,21.83-.35,7.05-2.7,13.68-6.99,19.73-4.14,6.25-10.07,10.64-17.18,12.69-6.57,1.91-13.19,1.98-19.66,.23-5.6-1.51-11.03-4.09-16.1-7.66-10.9-7.5-27.39-18.23-49.16-31.98-.19,3.82-.4,7.45-.63,10.87-.54,7.97-3.52,14.9-8.85,20.6-5.54,5.93-13.37,9.28-23.25,9.96l-.79,.05Zm-10.6-27.97c.74,.47,2.02,1.13,4.16,1.81,1.7,.55,3.8,.91,6.27,1.1,2.88-.28,4.98-.99,5.95-2.03,1.35-1.45,2.02-3.06,2.17-5.23,.33-4.84,.61-10.17,.84-15.84,.21-5.41,.45-10.77,.69-15.94l1.02-21.31,18.09,11.31c31.28,19.55,54.26,34.37,68.32,44.05l.12,.09c2.72,1.92,5.43,3.23,8.27,4,2.05,.56,4.01,.52,6.18-.11,1.47-.42,2.43-1.16,3.32-2.54l.36-.52c1.58-2.19,2.36-4.27,2.47-6.56,.03-.57,.03-.7-.28-.99-16.65-11.62-45.16-30.93-84.76-57.41l-13.85-9.26,12.76-10.71c39.58-33.21,68.42-69.85,85.71-108.92,2.41-6.14,.65-7.97-.41-9.07-1.95-2.03-4.52-3.77-10.05-2.74-3.17,.59-6.43,1.95-8.74,7.8-12.41,32.12-36.38,62.94-71.21,91.52l-19.1,15.68-1.31-24.68c-.15-2.83-.56-14.65-2.42-84.37v-.53s.02-.53,.02-.53c.16-2.78-.45-4.85-4.07-7.17-3.77-2.41-6.05-2.13-8.51-.9l-.25,.12c-3.92,1.85-5.24,3.87-5.24,7.99,0,7.62,.12,31.95,.34,70.36,.22,39.45,.22,69.34,0,88.84,0,2.79-.06,6.63-.18,11.75-.11,4.62-.17,8.32-.17,10.73,0,2.2,.11,5.14,.32,8.73,.25,4.31,.67,5.82,.71,5.98,.26,.88,.79,2.36,1.94,4.66,.26,.52,.44,.76,.51,.84Zm-.09-.06s0,0,0,0c0,0,0,0,0,0Z"/>
        <path class="cls-3" d="M273.6,307.67c-3.9,0-7.82-.38-11.76-1.15-12.93-2.52-23.7-9.06-32-19.45l-.31-.41c-5.77-7.86-10.87-18.13-15.16-30.51-4.09-11.76-6.97-22.04-8.57-30.54-1.52-8.06-3.51-19.71-6.08-35.62-2.56-15.8-4.12-25.16-4.77-28.62l-.09-.53c-.68-4.79-1.2-8.32-1.54-10.6-.46-3.09-.62-6.65-.47-10.89,.18-5.5,1.26-9.96,3.32-13.62,1.83-3.26,4.51-6.29,8.2-9.27,3.66-2.96,8.25-5.27,13.64-6.88,19.4-6.23,29.6,2.9,33.96,8.9,5.29,7.29,9.73,18.84,13.59,35.32l.11,.53c.96,5.08,2.15,12.7,3.54,22.65l3.79,27.21c.73,5.28,1.73,10.76,2.97,16.39,2.21-8.7,4.05-19.47,5.47-32.08,1.73-15.37,2.95-24.88,3.7-29.05,1.43-9.62,6.02-17.47,13.26-22.72,7.01-5.08,14.63-7.38,22.65-6.83,7.93,.54,15.12,3.72,21.37,9.46,6.44,5.9,10.21,13.95,10.91,23.27,.24,3.18,.54,8.76,.88,16.57,.33,7.6,.67,13.39,1,17.22,.33,3.91,.85,9.02,1.52,15.21,.25,2.34,.55,4.6,.89,6.78,1.25-3.41,2.31-7.26,3.2-11.57,3.39-16.46,2.56-35.69-2.48-57.17-2.11-8.21-1.44-15.85,1.99-22.71,3.37-6.74,8.69-11.81,15.39-14.68,5.43-2.33,11.15-3.6,16.97-3.76,7.15-.19,13.86,2.05,19.95,6.66,6.03,4.57,10.15,10.81,12.26,18.56l.18,.73c1.02,4.87,2.04,12.39,3.13,22.99,1.07,10.49,1.56,23.35,1.44,38.22-.13,15.98-1.76,28.32-4.98,37.71l-.18,.48c-3.52,9.04-8.2,18.08-13.9,26.89-5.92,9.13-12.97,17.22-20.97,24.06-8.13,6.95-16.66,12.24-25.36,15.71-10.38,4.16-21.11,4.25-31.86,.29-5.85-2.15-11.33-5.57-16.37-10.21-5.01,4.79-10.84,8.68-17.44,11.62-8.13,3.63-16.5,5.45-24.99,5.45Zm-24.08-36.01c4.53,5.58,10.12,8.96,17.1,10.32,7.48,1.46,14.61,.61,21.79-2.59,7.16-3.19,12.57-8.01,16.54-14.74l10.06-17.04,11.07,16.4c4.67,6.92,9.71,11.41,14.96,13.34,4.92,1.81,9.35,1.8,13.95-.04,6.16-2.46,12.34-6.33,18.39-11.5,6.17-5.27,11.63-11.55,16.23-18.65,4.73-7.3,8.6-14.74,11.49-22.11,2.25-6.71,3.45-16.66,3.55-29.57,.11-13.96-.33-25.89-1.31-35.48-1.16-11.38-2.07-17.14-2.64-20.01-.86-2.88-2.2-4.17-3.15-4.89-1.93-1.46-3.25-1.62-4.17-1.6-2.68,.07-5.24,.65-7.8,1.75-.95,.41-1.95,1.04-2.88,2.89-.43,.86-.91,2.35-.12,5.37l.07,.29c5.9,25.09,6.8,48,2.66,68.07-4.52,21.93-13.67,37.01-27.17,44.81l-12.89,7.45-5.1-13.99c-2-5.47-3.7-11.16-5.07-16.88-1.38-5.74-2.45-12.12-3.2-18.94-.7-6.38-1.23-11.69-1.58-15.79-.36-4.23-.71-10.2-1.07-18.26-.42-9.4-.68-13.78-.84-15.79-.29-3.89-1.69-5.63-2.87-6.71-2.66-2.44-4.8-2.85-6.18-2.94-1.32-.09-3.39,.03-6.28,2.13-1.21,.88-2.67,2.38-3.23,6.28l-.09,.54c-.43,2.32-1.39,8.97-3.48,27.52-1.79,15.88-4.25,29.32-7.3,39.94-3.41,11.85-8.83,21.84-16.12,29.68l-11.15,12.01-8.63-13.93c-3.7-5.97-6.77-13.87-9.41-24.15-2.4-9.36-4.23-18.52-5.44-27.22l-3.79-27.2c-1.31-9.37-2.42-16.49-3.29-21.18-3.97-16.85-7.61-23.57-9.43-26.08-.68-.94-2.76-.86-6.17,.25l-.33,.1c-2.86,.84-4.38,1.76-5.15,2.38-1.19,.96-1.77,1.62-2,1.92-.08,.33-.21,1.07-.25,2.37-.11,3.32,.05,5.28,.21,6.34,.34,2.28,.85,5.78,1.53,10.51,.72,3.89,2.26,13.12,4.82,28.96,2.5,15.48,4.51,27.25,5.97,34.98,1.37,7.3,3.94,16.37,7.62,26.98,3.43,9.9,7.32,17.87,11.55,23.7Zm-31.4-134.06h0Z"/>
        <path class="cls-3" d="M496.16,307.3c-21.39,0-39.5-5.4-54.14-16.19-18.52-13.22-27.56-32.23-26.15-54.98l.02-.23c1.9-23.69,14.52-44.15,37.51-60.79l.11-.08c11.6-8.2,25.25-14.7,40.7-19.38-.42-.73-.68-.95-.94-1.04-10.55-.66-19.48,.59-26.52,3.71-6.85,3.36-13.86,4.53-20.83,3.45-7.32-1.13-13.48-4.34-18.3-9.55-3.99-4.3-7-9.2-8.94-14.55-2.27-6.24-2.49-12.84-.66-19.59,1.87-6.94,5.93-12.83,12.05-17.51l.19-.15c17.23-12.66,42.21-17.27,74.22-13.72l.48,.06c11.26,1.69,21.37,5.93,30.05,12.62,8.53,6.58,15.26,14.93,20.01,24.82,4.26,8.9,7.56,18.06,9.82,27.21,2.22,9.02,3.72,18.58,4.46,28.41l.02,.33c.46,9.58,1.05,36.25,1.73,79.28v.2c0,4.32-.13,7.76-.4,10.52-.36,3.54-1.35,7.28-2.97,11.15-2.12,5.08-5.64,9.28-10.47,12.49-3.8,2.54-8.5,4.63-14.36,6.39l-.25,.07c-16.86,4.69-32.36,7.03-46.44,7.03Zm-55.34-69.5c-.85,14.25,4.17,24.74,15.79,33.02l.18,.13c17.75,13.12,44.32,14.89,78.99,5.28,4.15-1.26,6.4-2.44,7.55-3.21,.99-.66,1.18-1.12,1.26-1.31,.83-1.99,1.09-3.28,1.16-4.02,.12-1.27,.28-3.71,.28-7.94-.68-42.44-1.25-68.75-1.7-78.2-.64-8.39-1.91-16.51-3.79-24.13-1.85-7.5-4.57-15.04-8.09-22.4-3.08-6.42-7.24-11.59-12.72-15.82-5.29-4.07-11.27-6.58-18.28-7.66-25.38-2.78-44.33,.23-56.31,8.97-2.16,1.68-2.75,3.15-3.01,4.11-.61,2.27-.31,3.61,.02,4.52,.81,2.23,2.05,4.23,3.79,6.11,.67,.72,1.63,1.5,3.76,1.83,1.19,.18,3.13,.25,6.12-1.24l.46-.22c11.03-4.97,24.29-6.95,39.41-5.89l.98,.11c8.55,1.28,15.35,6.19,19.66,14.19,3.3,6.12,5.13,12.86,5.44,20.02l.46,10.41-10.15,2.32c-17.35,3.97-32.18,10.25-44.08,18.65-16.95,12.29-25.84,26.16-27.18,42.39Zm50.34,29.94c-4.04,0-7.93-.51-11.66-1.54-7.84-2.08-13.37-6.11-16.43-11.97-2.14-4.1-4.01-10.76-.72-19.14,1.66-4.23,3.89-8.23,6.63-11.88,2.46-3.27,5.21-6.32,8.19-9.06,8.76-8.9,20.98-14.67,36.33-17.13l16.23-2.61-1.82,16.33c-.08,.68-.24,2.82-.1,7.92,.11,4.37,.23,8.73,.34,13.09,.13,5.12-.15,9.89-.84,14.2-1.3,8.03-4.87,13.36-10.63,15.86-9.04,3.95-17.58,5.93-25.53,5.93Zm-5.61-23.29h0Zm.98-2.25c4.45,1.11,9.93,.52,16.33-1.77,.29-2.4,.39-5.09,.32-8.01-.06-2.12-.11-4.25-.17-6.37-3.23,1.59-5.95,3.52-8.15,5.79l-.58,.56c-1.92,1.75-3.7,3.71-5.29,5.82-.94,1.25-1.76,2.59-2.46,3.99Z"/>
        <path class="cls-3" d="M600.9,308.3c-13.25,0-22.68-3.89-28.01-11.57-4.4-6.33-6.59-15.18-6.88-27.85v-.14c-.46-40.7-1.38-87.26-2.74-138.39-1.13-10.13,1.08-19.43,6.56-27.64,6.21-9.33,15.46-14.29,26.74-14.34,11.62-.31,21.21,4.63,27.75,14.26,5.61,8.26,8.19,17.59,7.68,27.75,1.61,86.22,2.28,133.42,2.06,144.24-.03,9.34-3.28,17.6-9.39,23.89-6.24,6.42-14.46,9.82-23.78,9.82Zm-7.64-26.1c.56,.29,2.61,1.1,7.64,1.1,3.23,0,4.72-1.08,5.85-2.24,1.08-1.11,2.32-2.87,2.32-6.61v-.27c.22-10.11-.47-58.49-2.07-143.81v-.49s.02-.49,.02-.49c.29-4.85-.78-8.9-3.37-12.72-1.73-2.54-3.45-3.41-6.5-3.31h-.38c-2.94,0-4.55,.85-6.13,3.22-2.24,3.36-3.03,6.95-2.48,11.32l.08,.61,.02,.61c1.37,51.45,2.29,98.3,2.76,139.26,.22,9.32,1.73,12.86,2.25,13.83Z"/>
        <path class="cls-3" d="M664,308.05c-1.86,0-3.71-.13-5.57-.38-7.03-.97-13.24-4.3-18.45-9.88-5.01-5.37-8.08-12.1-9.11-20l-.07-.62c-.93-11.61-1.81-28.54-2.61-50.31-.8-21.45-1.42-35.12-1.86-40.63l-.02-.31c-.58-10.71,1.33-20.4,5.69-28.82,5.47-10.56,15.29-16.23,27.63-16.06,6.08-.25,11.81,1.08,17.05,3.97,5.26,2.91,9.49,6.96,12.57,12.03,3.02,5,4.73,10.65,5.07,16.82,3.02,55.14,4.6,87.27,4.84,98.25v.27c0,8.02-2.05,15.13-6.1,21.12-4.28,6.32-9.95,10.6-16.87,12.71-4.03,1.23-8.11,1.84-12.19,1.84Zm-8.3-33.23c.49,3.35,1.69,4.97,2.56,5.9,1.6,1.71,2.76,2.06,3.6,2.18,2.34,.32,4.64,.12,7.05-.61,.91-.28,2.13-.85,3.45-2.8,1.2-1.78,1.8-4.07,1.81-7-.24-10.7-1.85-43.42-4.8-97.26-.12-2.06-.6-3.77-1.48-5.23-.81-1.33-1.85-2.32-3.28-3.11-1.25-.69-2.51-.96-4.08-.87l-.54,.03-.54-.02c-3.91-.11-4.5,1.12-5.24,2.55-2.29,4.43-3.25,9.6-2.93,15.82,.47,6.03,1.1,19.62,1.91,41.52,.78,21.2,1.63,37.64,2.52,48.89Zm5.39-148.02c-.39,0-.79,0-1.19-.02-9.09-.06-17.25-3.36-23.63-9.57-6.53-6.34-9.98-14.62-9.98-23.94s3.37-17.15,9.74-23.7c6.41-6.59,14.54-10.1,23.54-10.16,9.33-.29,17.76,3.05,24.4,9.68,6.57,6.58,10.04,15.05,10.04,24.52v.48c-.36,9.06-3.83,17.13-10.03,23.34-6.14,6.14-14.02,9.36-22.87,9.36Zm-1.29-42.38c-2.37,0-4.06,.75-5.85,2.59-1.86,1.91-2.66,3.79-2.66,6.27,0,2.61,.7,4.35,2.41,6.02,1.8,1.75,3.73,2.49,6.45,2.49h.48c3.05,.13,4.53-.9,5.66-2.02,1.72-1.72,2.56-3.7,2.71-6.39-.04-2.76-.86-4.74-2.71-6.6-1.78-1.77-3.5-2.47-6.01-2.37h-.47Z"/>
      </g>
      <g>
        <path class="cls-2" d="M96.66,78.46c1.38,51.67,2.18,79.68,2.41,84.04,33.29-27.32,55.8-56.14,67.51-86.45,3.44-8.72,9.47-13.89,18.08-15.5,8.61-1.6,15.73,.52,21.35,6.37,5.62,5.86,6.6,13.38,2.93,22.56-18.14,41.11-47.88,78.99-89.21,113.66,40.18,26.87,68.66,46.15,85.42,57.86,3.67,2.99,5.39,6.84,5.17,11.54-.23,4.71-1.84,9.13-4.82,13.26-2.53,3.91-5.97,6.49-10.33,7.75-4.36,1.26-8.67,1.32-12.92,.17-4.25-1.15-8.33-3.1-12.23-5.86-14.01-9.64-36.63-24.22-67.85-43.74-.23,4.82-.46,10.11-.69,15.84-.23,5.74-.52,11.14-.86,16.19-.34,5.05-2.18,9.36-5.51,12.92-3.33,3.56-8.33,5.57-14.98,6.03-3.91-.23-7.29-.8-10.16-1.72-2.87-.91-5.28-2.01-7.23-3.27-1.95-1.26-3.56-3.15-4.82-5.68-1.26-2.52-2.18-4.76-2.76-6.72-.58-1.95-.98-4.88-1.21-8.78-.23-3.9-.34-7.06-.34-9.47s.05-6.08,.17-11.02c.11-4.94,.17-8.78,.17-11.54,.23-19.51,.23-49.08,0-88.69-.23-39.61-.34-63.09-.34-70.44,0-8.96,4.13-15.38,12.4-19.29,6.89-3.44,13.83-2.93,20.84,1.55,7,4.48,10.27,10.62,9.82,18.43Z"/>
        <path class="cls-2" d="M412.85,137.02c.91,4.36,1.89,11.6,2.93,21.7,1.03,10.11,1.49,22.39,1.38,36.85-.12,14.47-1.55,25.72-4.31,33.75-3.22,8.27-7.46,16.48-12.74,24.63-5.28,8.15-11.48,15.27-18.6,21.35-7.12,6.09-14.41,10.62-21.87,13.61-7.46,2.99-15.1,3.05-22.9,.17-7.81-2.87-14.81-8.9-21.01-18.08-5.28,8.96-12.69,15.56-22.22,19.8-9.53,4.25-19.29,5.39-29.28,3.44-9.99-1.95-18.2-6.94-24.63-14.98-5.05-6.89-9.53-15.96-13.43-27.21-3.91-11.25-6.6-20.84-8.09-28.76-1.5-7.92-3.5-19.69-6.03-35.3-2.53-15.61-4.13-25.26-4.82-28.93-.69-4.82-1.21-8.38-1.55-10.68-.34-2.29-.46-5.17-.34-8.61,.11-3.44,.69-6.08,1.72-7.92,1.03-1.84,2.76-3.73,5.17-5.68,2.41-1.95,5.57-3.5,9.47-4.65,9.18-2.98,15.9-1.55,20.15,4.31,4.25,5.86,8.09,16.13,11.54,30.83,.91,4.82,2.07,12.17,3.44,22.04,1.38,9.88,2.64,18.94,3.79,27.21,1.15,8.27,2.87,16.88,5.17,25.83,2.29,8.96,4.94,15.84,7.92,20.67,5.97-6.43,10.39-14.64,13.26-24.63,2.87-9.99,5.17-22.61,6.89-37.89,1.72-15.27,2.93-24.74,3.62-28.42,.91-6.43,3.67-11.31,8.27-14.64,4.59-3.33,9.41-4.82,14.47-4.48,5.05,.34,9.64,2.41,13.78,6.2s6.43,8.78,6.89,14.98c.23,2.99,.52,8.39,.86,16.19,.34,7.81,.69,13.72,1.03,17.74,.34,4.02,.86,9.19,1.55,15.5,.69,6.32,1.66,12.11,2.93,17.39,1.26,5.29,2.81,10.45,4.65,15.5,10.33-5.97,17.39-18.14,21.18-36.51,3.79-18.37,2.93-39.26-2.58-62.69-1.38-5.28-1.03-9.99,1.03-14.12s5.11-7.06,9.13-8.78c4.01-1.72,8.15-2.64,12.4-2.76,4.25-.11,8.27,1.26,12.06,4.13,3.79,2.87,6.37,6.84,7.75,11.88Z"/>
        <path class="cls-2" d="M558.54,259.64c0,3.91-.12,7.01-.34,9.3-.23,2.3-.92,4.82-2.07,7.58-1.15,2.76-3.1,5.05-5.86,6.89-2.76,1.84-6.43,3.44-11.02,4.82-38.81,10.79-68.77,8.38-89.9-7.23-15.15-10.79-22.16-25.49-21.01-44.09,1.6-19.98,12.4-37.2,32.38-51.67,13.31-9.41,29.5-16.3,48.57-20.67-.23-5.28-1.55-10.16-3.96-14.64-2.41-4.48-5.91-7.06-10.51-7.75-13.09-.91-24.23,.69-33.41,4.82-4.6,2.3-9.13,3.1-13.61,2.41-4.48-.69-8.15-2.58-11.02-5.68-2.87-3.1-4.99-6.54-6.37-10.33s-1.5-7.8-.34-12.05c1.15-4.25,3.67-7.86,7.58-10.85,14.69-10.79,36.51-14.58,65.44-11.37,9.18,1.38,17.28,4.77,24.28,10.16,7,5.4,12.45,12.17,16.36,20.32,3.9,8.15,6.89,16.42,8.96,24.8,2.07,8.38,3.44,17.17,4.13,26.35,.46,9.42,1.03,35.71,1.72,78.88Zm-46.84-9.3c1.6-.69,2.7-2.81,3.27-6.37,.57-3.56,.8-7.52,.69-11.88-.12-4.36-.23-8.72-.34-13.09-.12-4.36-.06-7.58,.17-9.64-12.86,2.07-22.73,6.66-29.62,13.78-2.53,2.3-4.82,4.82-6.89,7.58-2.07,2.76-3.73,5.74-4.99,8.96-1.26,3.22-1.21,6.15,.17,8.78,1.38,2.64,4.25,4.54,8.61,5.68,8.27,2.3,17.91,1.03,28.93-3.79Z"/>
        <path class="cls-2" d="M619.5,130.13c1.6,85.88,2.29,133.98,2.07,144.32,0,6.2-1.95,11.31-5.86,15.33-3.91,4.02-8.84,6.03-14.81,6.03-8.96,0-14.87-2.07-17.74-6.2-2.87-4.13-4.42-11.13-4.65-21.01-.46-40.87-1.38-87.25-2.76-139.15-.92-7.35,.57-13.95,4.48-19.8,3.9-5.86,9.41-8.78,16.53-8.78,7.35-.23,13.09,2.7,17.22,8.78,4.13,6.09,5.97,12.92,5.51,20.49Z"/>
        <path class="cls-2" d="M686.67,272.38c0,5.51-1.32,10.22-3.96,14.12-2.64,3.91-6.03,6.49-10.16,7.75-4.13,1.26-8.27,1.6-12.4,1.03s-7.81-2.58-11.02-6.03c-3.22-3.44-5.17-7.8-5.86-13.09-.92-11.48-1.78-28.07-2.58-49.77-.81-21.7-1.44-35.42-1.89-41.16-.46-8.49,.97-15.96,4.31-22.39,3.33-6.43,8.9-9.53,16.7-9.3,3.9-.23,7.52,.58,10.85,2.41,3.33,1.84,5.97,4.36,7.92,7.58,1.95,3.22,3.04,6.89,3.27,11.02,2.98,54.42,4.59,87.03,4.82,97.82Zm-26.52-158.09c-5.97,0-11.02-2.01-15.15-6.03-4.13-4.02-6.2-9.01-6.2-14.98s2.07-10.73,6.2-14.98c4.13-4.25,9.07-6.37,14.81-6.37,5.97-.23,11.08,1.78,15.33,6.03,4.25,4.25,6.37,9.47,6.37,15.67-.23,5.97-2.36,10.97-6.37,14.98-4.02,4.02-9.01,5.91-14.98,5.68Z"/>
      </g>
    </g>
  </g>
</svg>